<?xml version="1.0" encoding="UTF-8"?>
<svg width="45" height="45" viewBox="0 0 45 45" fill="none" xmlns="http://www.w3.org/2000/svg">
<path fill-rule="evenodd" clip-rule="evenodd" d="M22.16 1.75289C10.715 1.75289 1.40414 11.0637 1.40414 22.5087C1.40414 33.9537 10.715 43.2645 22.16 43.2645C33.6049 43.2645 42.9158 33.9537 42.9158 22.5087C42.9158 11.0637 33.6049 1.75289 22.16 1.75289ZM22.16 44.6599C9.94577 44.6599 0.00878906 34.7229 0.00878906 22.5087C0.00878906 10.2945 9.94577 0.357544 22.16 0.357544C34.3741 0.357544 44.3111 10.2945 44.3111 22.5087C44.3111 34.7229 34.3741 44.6599 22.16 44.6599Z" fill="black"/>
<mask id="mask0221" mask-type="alpha" maskUnits="userSpaceOnUse" x="0" y="0" width="45" height="45">
<path fill-rule="evenodd" clip-rule="evenodd" d="M0.00012207 0.348755H44.32V44.6513H0.00012207V0.348755Z" fill="white"/>
</mask>
<g mask="url(#mask0221)">
<path fill-rule="evenodd" clip-rule="evenodd" d="M4.16953 44.6513C2.90011 44.6513 1.85778 44.3077 1.10953 43.5595C-0.7871 41.6628 -0.244309 37.8033 2.67964 32.3984C2.86313 32.0597 3.28662 31.9334 3.62534 32.1169C3.96441 32.3004 4.09034 32.7239 3.9072 33.0626C1.41825 37.6627 0.741156 41.2177 2.09604 42.573C4.81209 45.288 15.7813 40.1335 27.783 28.1318C33.2277 22.6868 37.7113 16.9456 40.4074 11.9653C42.9009 7.35993 43.5798 3.8011 42.2238 2.44482C40.8679 1.08854 37.3091 1.76737 32.7034 4.26156C32.3643 4.4447 31.9412 4.31877 31.7577 3.98005C31.5742 3.64098 31.7001 3.21819 32.0392 3.03435C37.4493 0.105514 41.312 -0.440416 43.2103 1.45831C45.1087 3.35633 44.5635 7.21935 41.6346 12.6295C38.876 17.7253 34.307 23.5812 28.7695 29.1183C20.2935 37.5947 9.91837 44.6503 4.16953 44.6513Z" fill="black"/>
</g>
<path fill-rule="evenodd" clip-rule="evenodd" d="M28.9497 35.7295C28.9211 35.7295 28.8925 35.726 28.8642 35.7191C27.7302 35.4323 26.7416 34.5281 26.152 33.2371C25.6979 32.2436 25.5231 31.1768 25.3822 30.1303C23.743 30.408 21.7602 29.6615 21.1448 27.9564C21.0412 27.6686 20.9802 27.3672 20.9641 27.0616C20.9585 26.9573 20.9585 26.8523 20.9585 26.7477C20.9585 26.5555 20.9585 26.3741 20.9198 26.2129C20.7653 25.5637 19.9766 25.2187 19.6448 25.1005C19.4366 25.0258 19.2224 24.9651 19.0089 24.9037C18.5348 24.767 18.0444 24.6264 17.5992 24.3501C16.6842 23.7829 16.1802 22.7772 15.7748 21.9693C15.666 21.752 15.501 21.423 15.5729 21.0602C15.6649 20.5917 16.0727 20.3486 16.4006 20.1536C16.6912 19.9806 16.8684 19.8648 16.8754 19.721C16.8799 19.6342 16.8179 19.5142 16.7519 19.3868L16.723 19.331C16.252 18.4052 16.1401 17.2998 16.4153 16.2986C16.4418 16.2027 16.5074 16.1228 16.5963 16.0785C17.1513 15.8025 17.5895 15.3096 17.7984 14.7264C17.8553 14.567 18.0175 14.4714 18.1853 14.5003C18.8701 14.6154 19.604 14.3517 20.0558 13.825C20.0959 13.7782 20.1475 13.7434 20.2058 13.7228C20.6453 13.5696 20.954 13.0687 20.893 12.6065C20.879 12.4991 20.9156 12.3913 20.9924 12.3145C21.5481 11.7581 22.2845 12.1366 22.8758 12.4401C23.3854 12.7021 23.6575 12.8134 23.8166 12.7359L23.8794 11.3437C23.8877 11.1574 24.0412 11.0106 24.2279 11.0106L25.9159 11.0109C26.0617 11.0109 26.1922 11.1013 26.2427 11.238C26.5825 12.1527 27.7654 12.491 28.8779 12.7014L31.1697 13.135C31.5426 11.5614 31.8098 9.9515 31.9654 8.3444C32.0153 7.82324 32.0701 7.25638 32.3941 6.78859C32.4538 6.70278 32.5215 6.62254 32.5898 6.54301C32.6694 6.44952 32.7447 6.36161 32.7904 6.27406C32.8724 6.11603 32.8877 5.90638 32.9041 5.68417C32.9135 5.55405 32.9237 5.42394 32.9442 5.29661C33.0325 4.75871 33.4291 4.23231 33.9862 4.26022C34.1784 4.27033 34.326 4.43464 34.3162 4.62719C34.3058 4.8194 34.1387 4.96557 33.9492 4.95719C33.9475 4.95685 33.9454 4.95685 33.9433 4.95685C33.8191 4.95685 33.6723 5.16999 33.6329 5.40964C33.6154 5.51673 33.6081 5.62592 33.5997 5.73545C33.5798 6.0051 33.5575 6.31068 33.4089 6.59603C33.3266 6.7544 33.2167 6.88312 33.1201 6.99615C33.067 7.05824 33.0137 7.11929 32.9676 7.18626C32.7472 7.5044 32.7039 7.95475 32.6617 8.39045C32.4904 10.1611 32.1911 11.9148 31.7694 13.623C31.7251 13.8034 31.5468 13.915 31.3661 13.8822L28.7481 13.3868C27.5275 13.1559 26.2267 12.7736 25.6877 11.7086L24.5613 11.7082L24.5069 12.9149C24.5034 12.9902 24.4755 13.0628 24.4274 13.121C23.9038 13.7531 23.1255 13.353 22.5569 13.061C22.1212 12.8367 21.7999 12.686 21.598 12.7425C21.5892 13.4217 21.1529 14.0838 20.5249 14.3472C19.9769 14.9413 19.1554 15.2664 18.3489 15.2196C18.0754 15.8081 17.617 16.3059 17.0523 16.6258C16.8698 17.4229 16.9741 18.2856 17.3446 19.0146L17.3715 19.0663C17.467 19.2511 17.586 19.481 17.5724 19.7556C17.5466 20.283 17.1091 20.5436 16.7579 20.7525C16.5168 20.8966 16.2894 21.0316 16.2573 21.1952C16.2339 21.3142 16.3106 21.4809 16.3989 21.6564C16.8639 22.5839 17.2748 23.328 17.9669 23.7574C18.3301 23.9824 18.7535 24.1042 19.2018 24.2329C19.4292 24.2981 19.657 24.3641 19.8789 24.4432C20.4245 24.6375 21.373 25.1046 21.5987 26.051C21.6562 26.2917 21.6562 26.5234 21.6562 26.7477C21.6562 26.8405 21.6559 26.9329 21.6608 27.025C21.6733 27.2625 21.7204 27.4959 21.8013 27.7199C22.326 29.1752 24.2135 29.7581 25.5831 29.3709C25.6815 29.3437 25.7854 29.3601 25.8698 29.4152C25.9546 29.471 26.0108 29.5607 26.0237 29.6611C26.1698 30.7764 26.3212 31.9289 26.7866 32.9472C27.1884 33.827 27.8198 34.5093 28.5335 34.8574C28.3581 33.115 28.5485 31.3328 29.0913 29.6692C29.1269 29.56 29.2141 29.4756 29.324 29.4431C29.4339 29.4107 29.5532 29.4344 29.6422 29.5063L30.3234 30.0571L30.711 28.6391C30.7225 28.5965 30.7424 28.5567 30.7685 28.5215C30.9447 28.2874 31.2029 28.1584 31.4962 28.1584H31.4973C32.0505 28.1591 32.6272 28.5993 32.9537 29.0357C33.2631 29.4491 33.622 29.7382 33.8666 29.7717C33.9238 29.7798 33.9716 29.7735 34.0176 29.7515C34.1352 29.4965 34.1411 29.1745 34.0298 28.8738C33.9091 28.5449 33.666 28.2874 33.3792 28.1845C33.3126 28.1608 33.2422 28.1409 33.1717 28.121C32.9062 28.0471 32.5762 27.9543 32.369 27.6553C32.1705 27.3703 32.1862 27.04 32.1984 26.7742C32.2263 26.1941 32.174 25.1845 31.522 24.79C31.3239 24.67 31.0692 24.6037 30.7999 24.5339C30.3287 24.4122 29.7946 24.2734 29.4876 23.7864C29.2295 23.3775 29.2588 22.8902 29.2801 22.5348C29.3027 22.1625 29.4506 21.6421 29.7925 21.3986C29.9749 21.2695 30.1944 21.2311 30.4103 21.2915C30.6604 21.3616 30.8177 21.5475 30.9217 21.67C31.798 22.7039 32.4949 23.1501 33.0908 23.0542C33.0747 22.3816 32.8382 21.7105 32.4245 21.1806C32.3662 21.1059 32.3408 21.0107 32.354 20.9168C32.3673 20.823 32.4182 20.7382 32.4953 20.6831C32.9334 20.366 33.5474 20.3301 34.0965 20.5907C34.6455 20.8506 35.0073 21.3473 35.0411 21.888C35.0435 21.9285 35.0449 21.9696 35.0463 22.0115C35.0481 22.0851 35.0516 22.2079 35.0715 22.2403C35.0833 22.2442 35.1566 22.255 35.2051 22.2623C35.3153 22.2784 35.4531 22.2989 35.5881 22.3729C35.916 22.5525 35.9927 22.8941 36.0496 23.1438C36.0789 23.2757 36.1096 23.4117 36.1644 23.4766C36.1762 23.4909 36.2125 23.5356 36.329 23.5073C36.487 23.4693 36.6367 23.3305 36.6691 23.1916C36.7494 22.8456 36.554 22.4535 36.3283 22.0485C36.2704 21.9442 36.2697 21.8179 36.3262 21.7129C36.3831 21.6082 36.4891 21.5395 36.6081 21.5311C37.5883 21.4596 38.5699 21.6979 39.4082 22.2037C39.4773 22.0314 39.4605 21.7882 39.3855 21.5898C39.3168 21.407 39.2122 21.2308 39.1012 21.0445C38.9865 20.8523 38.8685 20.6531 38.7792 20.4299C38.7377 20.3252 38.7035 20.2178 38.6697 20.1107C38.6191 19.9485 38.571 19.795 38.4963 19.6732C38.3585 19.4475 38.1053 19.2857 37.8374 19.1141C37.693 19.022 37.5444 18.9271 37.4027 18.8161C37.1544 18.6205 36.9485 18.3902 36.749 18.1673C36.4951 17.8834 36.2547 17.6148 35.9582 17.4543C35.7147 17.3235 35.3306 17.3482 35.1011 17.5091C34.9379 17.6235 34.9546 17.7365 34.9605 17.7791C34.9766 17.8872 34.941 17.9964 34.8642 18.0745C34.7879 18.152 34.6797 18.1882 34.5709 18.176C33.7696 18.0724 33.0674 17.4229 32.9006 16.6321C32.8815 16.54 32.8996 16.4444 32.9519 16.3663C33.0039 16.2885 33.0852 16.2344 33.1776 16.2173C33.3667 16.1817 33.5408 16.0516 33.6555 15.8598C33.7703 15.6679 33.8027 15.453 33.7448 15.2699C33.7044 15.1418 33.7406 15.002 33.8387 14.9099C33.9363 14.8185 34.079 14.7916 34.2035 14.8391C35.3851 15.2974 36.673 15.5305 37.9445 15.5318C39.4979 15.5252 40.9228 15.1534 42.0649 14.4553C42.2296 14.3549 42.4441 14.4065 42.5446 14.5711C42.6451 14.7354 42.5931 14.9503 42.4288 15.0508C41.1779 15.8148 39.6283 16.2225 37.9473 16.2295H37.9016C36.7242 16.2295 35.5672 16.0418 34.4537 15.6707C34.4247 15.8587 34.3577 16.045 34.2541 16.2177C34.1111 16.4573 33.9123 16.6474 33.6827 16.7695C33.8181 17.0388 34.0539 17.2638 34.3284 17.3884C34.3999 17.2146 34.5262 17.0594 34.7006 16.9373C35.1472 16.6251 35.8155 16.5843 36.2892 16.8407C36.6935 17.0591 36.9862 17.3859 37.2695 17.7023C37.4568 17.912 37.6337 18.1098 37.8342 18.2674C37.9487 18.3574 38.077 18.4398 38.2131 18.5266C38.5208 18.7234 38.8696 18.9463 39.0918 19.3094C39.2111 19.5048 39.2746 19.7064 39.3356 19.9017C39.3639 19.9924 39.3925 20.0831 39.427 20.171C39.4961 20.3437 39.5955 20.5111 39.7009 20.688C39.8223 20.8924 39.9475 21.1035 40.0382 21.3431C40.2363 21.8678 40.2046 22.5951 39.6656 22.952C39.546 23.0311 39.3908 23.0291 39.2732 22.9471C38.6708 22.5267 37.9379 22.2745 37.2004 22.2257C37.3427 22.5585 37.4422 22.9474 37.3483 23.3496C37.2566 23.7428 36.9049 24.0864 36.4923 24.1854C36.1574 24.2671 35.8361 24.1694 35.631 23.9266C35.4667 23.7313 35.4123 23.4909 35.3687 23.2973C35.3383 23.1641 35.3045 23.013 35.2529 22.9848C35.2274 22.9708 35.1583 22.9607 35.1028 22.9523C34.963 22.9314 34.7715 22.9031 34.6089 22.7611C34.3637 22.548 34.3546 22.2372 34.3487 22.0314L34.3448 21.9313C34.3232 21.5884 34.0483 21.3396 33.7982 21.221C33.6381 21.1457 33.4291 21.0965 33.2296 21.1223C33.628 21.7834 33.8272 22.5693 33.7829 23.3385C33.7755 23.4735 33.6901 23.5917 33.5645 23.6423C32.2992 24.1474 31.1474 23.0155 30.3897 22.121C30.3499 22.0739 30.2662 21.9759 30.2219 21.9634C30.148 21.9777 29.9976 22.2281 29.9763 22.5766C29.9561 22.915 29.9498 23.2115 30.0775 23.4142C30.2373 23.6674 30.5791 23.7564 30.9751 23.8589C31.2813 23.9381 31.5977 24.0205 31.8831 24.1931C32.7963 24.746 32.9383 25.9125 32.8961 26.7941C32.8874 26.9838 32.879 27.1666 32.9418 27.2577C33.0063 27.3501 33.178 27.3982 33.3601 27.4495C33.4466 27.4739 33.5331 27.4984 33.6151 27.5277C34.1006 27.7021 34.4903 28.105 34.6846 28.6324C34.8792 29.1602 34.8437 29.7194 34.5876 30.1673C34.5649 30.2071 34.5342 30.2423 34.4976 30.2702C34.2869 30.4324 34.0344 30.4991 33.772 30.4628C33.1699 30.3808 32.6505 29.7951 32.3948 29.4536C32.1485 29.1243 31.7456 28.8564 31.4966 28.856H31.4962C31.4397 28.856 31.3989 28.8689 31.363 28.9007L30.8558 30.7561C30.8247 30.8695 30.7382 30.9599 30.6262 30.9965C30.5135 31.0321 30.3915 31.0098 30.2997 30.9354L29.6066 30.3749C29.1594 31.9795 29.0512 33.6818 29.2947 35.3298C29.3118 35.4452 29.2703 35.5614 29.1838 35.6395C29.1185 35.6981 29.0352 35.7295 28.9497 35.7295Z" fill="black"/>
<path fill-rule="evenodd" clip-rule="evenodd" d="M9.48861 38.2378C9.39756 38.2378 9.31 38.2022 9.24442 38.1384C7.60628 36.5344 6.09721 34.7766 4.75872 32.9145C4.14756 32.0644 3.49209 31.2314 2.62767 31.2589C2.43093 31.2555 2.27465 31.1117 2.26977 30.9195C2.26488 30.727 2.41663 30.5665 2.60919 30.5613C3.88942 30.5376 4.79291 31.7665 5.32523 32.5071C6.50221 34.1452 7.81419 35.701 9.23081 37.1393C9.17954 36.9924 9.09826 36.8456 9.01174 36.7221C8.96326 36.653 8.91198 36.584 8.86035 36.5145C8.59663 36.1591 8.29767 35.7562 8.27779 35.2434C8.26942 35.0281 8.31407 34.8279 8.35314 34.6507C8.38105 34.5244 8.40756 34.4055 8.41244 34.2956C8.42919 33.9328 8.22267 33.5773 8.00395 33.2006C7.87977 32.9867 7.75174 32.7659 7.65407 32.5284C7.19674 31.4149 7.51628 30.2623 7.82535 29.1471C8.08977 28.1941 8.33954 27.2937 8.12954 26.4415C8.10826 26.3567 8.08314 26.2727 8.05767 26.1882C7.98651 25.9507 7.90593 25.6821 7.91361 25.3919C7.92616 24.9185 8.16581 24.5149 8.35802 24.1901L9.65674 21.9994C9.78372 21.7859 9.91454 21.5648 9.95326 21.3453C10.0488 20.798 9.56674 20.258 9.12477 19.9622C8.90779 19.8171 8.67512 19.6936 8.42849 19.5624C8.04198 19.357 7.64221 19.1442 7.29372 18.8369C6.66442 18.2812 6.26221 17.2779 6.75686 16.5126C6.84023 16.3835 6.99895 16.3242 7.14651 16.3667C7.54488 16.4815 8.00256 16.402 8.35349 16.1735L7.28919 15.1092C7.14128 14.9609 6.9386 14.7583 6.87721 14.4628C6.77779 13.9821 7.09209 13.6176 7.345 13.3245C7.55012 13.0866 7.68198 12.9216 7.6457 12.7988C7.59128 12.616 7.69384 12.4231 7.87628 12.3663L11.7515 11.1586L11.8593 10.2384C11.8802 10.0601 12.0247 9.93313 12.213 9.93034L13.7769 9.96139C13.5037 9.28604 13.239 8.60476 12.9871 7.92906C12.8458 7.54918 12.7115 7.10895 12.9156 6.68755C13.0495 6.41092 13.2808 6.25151 13.4849 6.11058C13.6066 6.02651 13.7217 5.94732 13.7919 5.85767C14.0081 5.58418 13.8487 5.10418 13.562 4.85755C13.1995 4.54639 12.6609 4.43686 12.1851 4.33953C12.0553 4.31337 11.9517 4.21534 11.9176 4.08732L11.7093 3.29755C11.6601 3.11127 11.7714 2.92046 11.9577 2.87127C12.1436 2.82174 12.3348 2.93302 12.384 3.11965L12.5371 3.70011C13.0244 3.80406 13.5815 3.95476 14.0165 4.32837C14.5551 4.79127 14.8133 5.68988 14.3399 6.28988C14.2045 6.46151 14.0326 6.58011 13.8808 6.68476C13.7287 6.79011 13.5972 6.88046 13.5435 6.99139C13.4594 7.16511 13.5498 7.44069 13.6408 7.68523C13.9513 8.51825 14.2816 9.35999 14.6228 10.1881C14.6678 10.2966 14.6545 10.4208 14.5883 10.5178C14.5216 10.6144 14.4093 10.6695 14.2931 10.6699L12.5155 10.6339L12.4178 11.4649C12.4021 11.602 12.3069 11.7164 12.1753 11.7576L8.34477 12.9513C8.30326 13.282 8.07023 13.552 7.87314 13.7805C7.69698 13.9845 7.53058 14.1771 7.56023 14.3208C7.57942 14.4126 7.69209 14.5252 7.78244 14.6159L9.11395 15.9474C9.24651 16.0793 9.2507 16.2928 9.12372 16.4302C8.65663 16.9371 7.93558 17.1876 7.25395 17.0993C7.15628 17.5019 7.40291 18.0024 7.75523 18.3136C8.04198 18.5665 8.38907 18.7514 8.7564 18.9464C9.00721 19.08 9.2664 19.2178 9.51267 19.3824C10.1584 19.8146 10.7936 20.5891 10.6401 21.466C10.5798 21.811 10.4085 22.1002 10.2571 22.3552L8.95837 24.5459C8.79895 24.8145 8.61861 25.1187 8.61093 25.4107C8.60605 25.5886 8.6643 25.7826 8.7257 25.988C8.75465 26.0829 8.78291 26.1785 8.80663 26.2741C9.06058 27.3038 8.77454 28.3357 8.49791 29.3337C8.20733 30.3816 7.93279 31.3709 8.29907 32.2633C8.37895 32.4569 8.48988 32.648 8.60709 32.8503C8.86698 33.2972 9.13558 33.7598 9.10942 34.3273C9.10175 34.4969 9.06756 34.6521 9.03442 34.8014C9.00128 34.9503 8.97023 35.0909 8.97512 35.2165C8.98663 35.5134 9.19733 35.7977 9.42058 36.0987C9.4757 36.173 9.53081 36.2473 9.58279 36.3216C10.044 36.9781 10.1127 37.6427 9.76663 38.0996C9.70628 38.1795 9.61419 38.2294 9.51442 38.2367C9.5057 38.2374 9.49698 38.2378 9.48861 38.2378Z" fill="black"/>
<path fill-rule="evenodd" clip-rule="evenodd" d="M1.16139 18.9849C1.04593 18.9849 0.930463 18.9724 0.816742 18.9452C0.629416 18.9009 0.513602 18.7128 0.557905 18.5252C0.602556 18.3378 0.790928 18.2217 0.977905 18.2663C1.44325 18.3748 1.9843 18.0584 2.11302 17.5976C2.13465 17.5198 2.14721 17.4396 2.16046 17.36C2.17442 17.276 2.18872 17.1915 2.2086 17.1092C2.31849 16.6515 2.60383 16.2347 2.99104 15.9668C3.21011 15.815 3.44383 15.7188 3.67023 15.6253C3.85163 15.5506 4.02465 15.4791 4.17186 15.386C4.17011 15.3846 4.16837 15.3835 4.16663 15.3821C3.36849 14.8453 3.05732 13.8745 2.83023 13.1656C2.77128 12.9821 2.87244 12.7857 3.05593 12.7271C3.23976 12.6682 3.43581 12.7693 3.49442 12.9525C3.74872 13.745 4.00372 14.4315 4.55314 14.8013C4.70349 14.9028 4.97663 15.0867 4.9529 15.4254C4.94 15.6057 4.83953 15.7655 4.65465 15.9009C4.42511 16.069 4.17674 16.1715 3.93604 16.2706C3.73511 16.3533 3.54535 16.4314 3.38837 16.5403C3.14 16.7119 2.95721 16.9791 2.88674 17.2725C2.8707 17.3391 2.85988 17.4068 2.84872 17.4741C2.83128 17.5788 2.81349 17.6831 2.78488 17.7853C2.58918 18.4857 1.87965 18.9849 1.16139 18.9849Z" fill="black"/>
</svg>
