<?xml version="1.0" encoding="UTF-8"?>
<svg width="795" height="313" viewBox="0 0 795 313" fill="none" xmlns="http://www.w3.org/2000/svg">
<path fill-rule="evenodd" clip-rule="evenodd" d="M489.136 170.251C484.5 200.863 463.456 226.383 435.664 238.383V75.3459C463.358 87.3047 484.352 112.687 489.083 143.156H512.962C506.657 91.3794 463.934 50.3347 412 44.865V49.4531V68.7584V244.97V267.341V268.865C464.041 263.385 506.83 222.179 513 170.251H489.136Z" fill="#E8E8E8"/>
<path fill-rule="evenodd" clip-rule="evenodd" d="M553 167.865V182.865C553.883 177.933 554.55 172.928 555 167.865H553Z" fill="#E8E8E8"/>
<path fill-rule="evenodd" clip-rule="evenodd" d="M241.575 169.865H240.425C240.721 172.886 241.103 175.888 241.575 178.865V169.865Z" fill="#E8E8E8"/>
<path fill-rule="evenodd" clip-rule="evenodd" d="M225 113.865H50.9998L78.2275 141.865H220.794C221.484 132.359 222.887 123.001 225 113.865Z" fill="#E8E8E8"/>
<path fill-rule="evenodd" clip-rule="evenodd" d="M569 197.865H666.702L694 169.865H573.218C572.526 179.369 571.118 188.727 569 197.865Z" fill="#E8E8E8"/>
<path fill-rule="evenodd" clip-rule="evenodd" d="M570 113.865C572.122 123.007 573.537 132.364 574.223 141.865H716.645L744 113.865H570Z" fill="#E8E8E8"/>
<path fill-rule="evenodd" clip-rule="evenodd" d="M221.811 169.865H101L128.129 197.865H226C223.895 188.723 222.493 179.366 221.811 169.865Z" fill="#E8E8E8"/>
<path fill-rule="evenodd" clip-rule="evenodd" d="M546 250.865H619.077L647 222.865H560.676C556.638 232.598 551.74 241.966 546 250.865Z" fill="#E8E8E8"/>
<path fill-rule="evenodd" clip-rule="evenodd" d="M235.426 222.865H149L176.7 250.865H250C244.295 241.957 239.432 232.588 235.426 222.865Z" fill="#E8E8E8"/>
<mask id="mask0" mask-type="alpha" maskUnits="userSpaceOnUse" x="0" y="0" width="795" height="313">
<path fill-rule="evenodd" clip-rule="evenodd" d="M0 0H794.907V312.865H0V0Z" fill="white"/>
</mask>
<g mask="url(#mask0)">
<path fill-rule="evenodd" clip-rule="evenodd" d="M491.559 251.554C466.413 276.295 433.149 289.921 397.899 289.921C397.224 289.921 396.552 289.915 395.874 289.905C360.199 289.377 326.866 274.997 302.015 249.415C277.164 223.831 263.769 190.108 264.298 154.455C264.82 119.156 278.971 86.0762 304.144 61.3113C329.291 36.5705 362.553 22.9455 397.805 22.944C398.48 22.944 399.152 22.9485 399.829 22.9591C435.504 23.4868 468.835 37.8669 493.687 63.4507C518.539 89.0329 531.934 122.757 531.406 158.409C530.883 193.709 516.732 226.789 491.559 251.554ZM794.907 61.7191H522.436C494.323 24.8362 450.157 0.756611 400.17 0.0166788C399.378 0.00606502 398.592 0 397.805 0C347.112 0.00151625 301.895 24.1661 273.265 61.7191H0L27.5989 89.2528H256.463C247.086 108.934 241.686 130.894 241.342 154.115C240.061 240.501 309.094 311.568 395.534 312.847C396.324 312.859 397.11 312.865 397.899 312.865C483.261 312.865 553.094 244.344 554.362 158.749C554.731 133.879 549.26 110.285 539.236 89.2528H767.309L794.907 61.7191Z" fill="#E8E8E8"/>
</g>
<path fill-rule="evenodd" clip-rule="evenodd" d="M365.079 75.4288V143.22H312.974C317.631 112.796 337.636 87.4296 365.079 75.4288M288 156.846C288 195.475 307.744 229.599 337.742 249.89V219.155C324.838 206.174 315.959 189.285 313.02 170.472H365.079V237.985V260.531V263.448C372.934 266.1 380.484 267.978 389 268.865V267.305V244.975V68.7545V49.4524V44.865C331.94 50.8063 288 98.7565 288 156.846" fill="#E8E8E8"/>
</svg>
