<?xml version="1.0" encoding="UTF-8"?>
<svg width="20" height="30" viewBox="0 0 20 30" fill="none" xmlns="http://www.w3.org/2000/svg">
<mask id="mask033" mask-type="alpha" maskUnits="userSpaceOnUse" x="0" y="0" width="20" height="20">
<path fill-rule="evenodd" clip-rule="evenodd" d="M0 0H19.1749V19.088H0V0Z" fill="white"/>
</mask>
<g mask="url(#mask033)">
<path fill-rule="evenodd" clip-rule="evenodd" d="M9.58742 17.4709C10.0036 17.4709 10.4196 17.6275 10.744 17.9407C10.9192 18.1098 11.1552 18.1779 11.3936 18.1273C11.6312 18.0765 11.8197 17.9185 11.9109 17.6929C12.2484 16.8565 13.1761 16.4428 14.0239 16.752C14.253 16.8357 14.4966 16.8012 14.6929 16.6583C14.8896 16.5154 14.9976 16.294 14.9891 16.0507C14.957 15.1495 15.6368 14.3946 16.5368 14.332C16.7794 14.3152 16.9882 14.1846 17.1099 13.9741C17.2313 13.7634 17.24 13.5175 17.1333 13.299C16.7378 12.4883 17.0518 11.5219 17.8481 11.0991C18.0628 10.9847 18.2007 10.7806 18.226 10.5387C18.2515 10.2971 18.1592 10.0687 17.9728 9.91252C17.2816 9.33307 17.1755 8.32276 17.7309 7.6122C17.8807 7.42063 17.9236 7.17803 17.8485 6.94677C17.7732 6.71551 17.596 6.54449 17.3624 6.47764C16.4955 6.22961 15.9876 5.34969 16.2058 4.47449C16.2649 4.2385 16.2054 3.99945 16.0426 3.81898C15.8799 3.63827 15.6486 3.55346 15.4077 3.58795C14.5131 3.71339 13.6925 3.11646 13.5363 2.22827C13.494 1.98874 13.3424 1.79457 13.1203 1.69583C12.8985 1.59685 12.6526 1.61433 12.4466 1.74307C11.6818 2.22118 10.688 2.00976 10.1841 1.26213C10.0481 1.06039 9.83073 0.944882 9.58766 0.944882C9.34435 0.944882 9.12703 1.06039 8.99097 1.26213C8.48734 2.01 7.49427 2.22189 6.72845 1.74307C6.52246 1.61409 6.27632 1.59638 6.05451 1.69583C5.83246 1.7948 5.68081 1.98874 5.63876 2.22827C5.48238 3.11622 4.65963 3.71315 3.76719 3.58795C3.52719 3.55417 3.29522 3.63803 3.13246 3.81874C2.96971 3.99945 2.90994 4.2385 2.969 4.47425C3.18774 5.34945 2.67963 6.22937 1.8127 6.47764C1.57884 6.54449 1.40168 6.71551 1.32632 6.94677C1.2512 7.17803 1.2942 7.42063 1.44372 7.6122C1.99955 8.32252 1.89349 9.33307 1.20231 9.91252C1.01593 10.0689 0.923566 10.2971 0.949078 10.539C0.974353 10.7809 1.11207 10.985 1.32703 11.0988C2.12333 11.5219 2.43727 12.4883 2.0416 13.2987C1.93483 13.5172 1.94357 13.7634 2.06522 13.9741C2.18687 14.1846 2.39569 14.3152 2.63805 14.332C3.53805 14.3946 4.21813 15.1495 4.18601 16.0509C4.1775 16.294 4.28546 16.5154 4.48199 16.6583C4.679 16.8012 4.92254 16.8357 5.1512 16.752C5.99805 16.4428 6.9264 16.8565 7.26396 17.6927C7.35514 17.9185 7.54388 18.0768 7.78152 18.1273C8.01821 18.1779 8.25585 18.1098 8.43089 17.9409C8.75522 17.6275 9.1712 17.4709 9.58742 17.4709ZM11.2431 19.088C10.816 19.088 10.4012 18.9236 10.0875 18.6203C9.80711 18.3494 9.36798 18.3494 9.08758 18.6203C8.68884 19.0056 8.12687 19.1662 7.58498 19.0514C7.04309 18.9364 6.59546 18.5606 6.38782 18.0465C6.24183 17.6849 5.84097 17.5065 5.47459 17.6398C4.95372 17.8294 4.37475 17.7482 3.92664 17.4227C3.47829 17.0969 3.22223 16.5716 3.2416 16.0176C3.2553 15.6279 2.96168 15.3014 2.57286 15.2745C2.01987 15.2362 1.52404 14.9265 1.24672 14.4465C0.969865 13.9665 0.94955 13.3824 1.19262 12.8842C1.36364 12.5339 1.22782 12.1162 0.883644 11.9334C0.394196 11.6735 0.0672665 11.1891 0.00915627 10.638C-0.0487177 10.0866 0.170259 9.54472 0.595219 9.18827C0.893802 8.93787 0.939865 8.50134 0.699629 8.19425C0.358054 7.75748 0.256479 7.18205 0.427975 6.6548C0.598999 6.12756 1.01947 5.72173 1.55238 5.56913C1.92727 5.46189 2.14695 5.08157 2.05246 4.70339C1.91805 4.16551 2.05931 3.59835 2.43018 3.18638C2.80128 2.77465 3.35026 2.57528 3.89924 2.65228C4.28546 2.70661 4.64073 2.44866 4.70829 2.06457C4.8042 1.51866 5.16349 1.05827 5.67018 0.832677C6.17687 0.607087 6.75963 0.648189 7.22971 0.942047C7.55971 1.14898 7.98916 1.05732 8.20742 0.734173C8.51735 0.274488 9.03301 0 9.58766 0C10.1421 0 10.6577 0.274488 10.9677 0.734173C11.1855 1.05732 11.6154 1.14898 11.9454 0.942047C12.4159 0.648189 12.9987 0.607559 13.5047 0.832441C14.0111 1.05803 14.3709 1.51866 14.4668 2.06457C14.5344 2.44843 14.8906 2.70661 15.2756 2.65228C15.8255 2.57504 16.374 2.77488 16.7449 3.18661C17.1158 3.59858 17.257 4.16575 17.1224 4.70362C17.0281 5.08157 17.2478 5.46189 17.6227 5.56913C18.1554 5.72173 18.5758 6.12756 18.7469 6.6548C18.9184 7.18205 18.8168 7.75748 18.4752 8.19425C18.2352 8.5011 18.2813 8.93787 18.5799 9.18827C19.0046 9.54449 19.2238 10.0864 19.1657 10.6377C19.1078 11.1891 18.7809 11.6735 18.2914 11.9334C17.9473 12.1162 17.8112 12.5341 17.9825 12.8844C18.2255 13.3824 18.2052 13.9663 17.9284 14.4465C17.651 14.9265 17.1555 15.2362 16.6022 15.2745C16.2134 15.3014 15.9198 15.6279 15.9335 16.0174C15.9529 16.5716 15.6968 17.0969 15.2484 17.4227C14.7999 17.7487 14.2209 17.8297 13.7005 17.6398C13.3344 17.5068 12.933 17.6849 12.787 18.0465C12.5796 18.5606 12.132 18.9364 11.5899 19.0514C11.4744 19.076 11.3584 19.088 11.2431 19.088Z" fill="#787878"/>
</g>
<path fill-rule="evenodd" clip-rule="evenodd" d="M3.76165 26.2496C3.90598 26.2496 4.04724 26.316 4.1389 26.4374L5.65661 28.4472L7.93 19.0869C7.76228 19.0867 7.59315 19.0609 7.42803 19.009C6.9537 18.8599 6.57433 18.5089 6.38772 18.0464C6.24173 17.685 5.8411 17.5061 5.47449 17.6398C4.95362 17.8293 4.37465 17.748 3.92654 17.4225C3.86158 17.3755 3.80063 17.324 3.74417 17.269L1.28677 27.3858L3.55756 26.2961C3.62299 26.2647 3.69268 26.2496 3.76165 26.2496ZM5.88055 29.9998C5.73433 29.9998 5.59378 29.9318 5.50354 29.8123L3.6178 27.3152L0.796851 28.6692C0.632678 28.7479 0.437087 28.7252 0.295119 28.6104C0.153386 28.4954 0.0903156 28.309 0.133544 28.1316L3.19591 15.5217C3.24598 15.3159 3.42717 15.1683 3.63882 15.1612C3.84339 15.1581 4.04158 15.2885 4.10536 15.4905C4.16536 15.6797 4.19228 15.8684 4.18591 16.0513C4.1774 16.2939 4.28535 16.5152 4.48189 16.6581C4.6789 16.801 4.92244 16.8355 5.1511 16.7519C5.9989 16.4432 6.92654 16.8568 7.26386 17.6928C7.34583 17.8952 7.5048 18.0426 7.71173 18.1078C7.91866 18.1725 8.14047 18.1437 8.31929 18.0268C8.48181 17.9209 8.69181 17.925 8.85032 18.0369C9.00835 18.1489 9.08205 18.3459 9.03646 18.5342L6.33953 29.6391C6.2963 29.8165 6.15504 29.9531 5.97622 29.9902C5.94433 29.9968 5.91221 29.9998 5.88055 29.9998Z" fill="#787878"/>
<mask id="mask1" mask-type="alpha" maskUnits="userSpaceOnUse" x="10" y="15" width="10" height="15">
<path fill-rule="evenodd" clip-rule="evenodd" d="M10.1249 15.1611H19.0549V30H10.1249V15.1611Z" fill="white"/>
</mask>
<g mask="url(#mask1)">
<path fill-rule="evenodd" clip-rule="evenodd" d="M11.2449 19.0869L13.5183 28.4472L15.0362 26.4374C15.1718 26.2581 15.4149 26.1993 15.6175 26.2961L17.8881 27.3858L15.4309 17.269C15.3742 17.324 15.3135 17.3755 15.2483 17.4228C14.8 17.7485 14.221 17.8295 13.7006 17.6398C13.3342 17.5061 12.9329 17.685 12.7869 18.0464C12.6005 18.5089 12.2214 18.8597 11.7471 19.009C11.5822 19.0609 11.4128 19.0867 11.2449 19.0869ZM13.2946 30.0001C13.2627 30.0001 13.2305 29.9968 13.1986 29.9902C13.0201 29.9531 12.8786 29.8165 12.8353 29.6391L10.1382 18.5342C10.0926 18.3459 10.1665 18.1489 10.3246 18.0369C10.4823 17.9254 10.6931 17.9212 10.8553 18.0268C11.0342 18.1437 11.2557 18.173 11.4636 18.1076C11.6703 18.0426 11.8293 17.8954 11.9108 17.693C12.2483 16.8565 13.1762 16.4434 14.024 16.7519C14.2529 16.8355 14.4964 16.801 14.6932 16.6581C14.8898 16.5152 14.9977 16.2939 14.9892 16.0508C14.9826 15.8682 15.0098 15.6797 15.0695 15.4905C15.1338 15.2885 15.3308 15.1583 15.5361 15.1612C15.7479 15.1685 15.9289 15.3159 15.979 15.5219L19.0416 28.1318C19.0846 28.3092 19.0217 28.4956 18.8798 28.6104C18.738 28.7254 18.5427 28.7479 18.378 28.6692L15.5573 27.3152L13.6713 29.8123C13.5813 29.932 13.4408 30.0001 13.2946 30.0001Z" fill="#787878"/>
</g>
<path fill-rule="evenodd" clip-rule="evenodd" d="M9.58738 3.89541C6.47257 3.89541 3.93887 6.42935 3.93887 9.54416C3.93887 12.6587 6.47257 15.1927 9.58738 15.1927C12.7022 15.1927 15.2361 12.6587 15.2361 9.54416C15.2361 6.42935 12.7022 3.89541 9.58738 3.89541ZM9.58738 15.6651C6.21226 15.6651 3.46643 12.9193 3.46643 9.54415C3.46643 6.16904 6.21226 3.42297 9.58738 3.42297C12.9625 3.42297 15.7086 6.16904 15.7086 9.54415C15.7086 12.9193 12.9625 15.6651 9.58738 15.6651Z" fill="#787878"/>
</svg>
