<?xml version="1.0" encoding="UTF-8"?>
<svg width="45" height="45" viewBox="0 0 45 45" fill="none" xmlns="http://www.w3.org/2000/svg">
<mask id="mask02" mask-type="alpha" maskUnits="userSpaceOnUse" x="0" y="0" width="45" height="45">
<path fill-rule="evenodd" clip-rule="evenodd" d="M0 0H45V44.9997H0V0Z" fill="white"/>
</mask>
<g mask="url(#mask02)">
<path fill-rule="evenodd" clip-rule="evenodd" d="M28.0872 41.9054L29.3724 43.1905L34.9623 35.1401C35.0105 35.0707 35.0707 35.0104 35.1402 34.9626L43.1906 29.3723L41.6478 27.8292L35.0431 30.0013C34.7635 30.0927 34.457 30.0027 34.2717 29.7752C34.2118 29.7012 34.1512 29.6278 34.0885 29.5612L22.621 17.4342C22.4799 17.2854 22.4105 17.0827 22.4303 16.879C22.4502 16.6753 22.5572 16.4899 22.7241 16.3709L36.3654 6.63033L32.5752 2.84006L15.3292 9.10285C15.0652 9.19888 14.7693 9.12943 14.5752 8.92675L9.87993 4.01927C8.71312 2.78549 6.02481 1.44789 3.87827 1.41777C3.03319 1.40643 2.39859 1.60203 2.00032 2.00029C1.60205 2.39856 1.40611 3.03069 1.4178 3.87825C1.44756 6.02478 2.78552 8.71309 4.01611 9.87671L9.03875 14.6814C9.23682 14.871 9.30768 15.1573 9.22123 15.4174L3.34323 33.0786L6.63036 36.3658L16.3709 22.724C16.49 22.5571 16.6753 22.4498 16.8794 22.4303C17.0831 22.4094 17.2854 22.4799 17.4346 22.6206L29.5623 34.0892C29.6448 34.1675 29.7434 34.2504 29.8635 34.3425C30.0966 34.5215 30.1951 34.8255 30.1111 35.1068L28.0872 41.9054ZM29.4709 44.9997C29.2838 44.9997 29.1034 44.9257 28.9698 44.7925L26.7865 42.6091C26.6026 42.4252 26.5342 42.1555 26.6082 41.9057L28.6201 35.1486C28.6091 35.1387 28.5985 35.1288 28.5882 35.1189L17.0516 24.2094L7.29756 37.8699C7.17674 38.0396 6.98717 38.1477 6.77953 38.1647C6.57083 38.1803 6.36709 38.1066 6.22004 37.9595L2.0315 33.771C1.84158 33.5814 1.77532 33.3008 1.86001 33.0464L7.73516 15.3954L3.03957 10.9039C1.60772 9.55002 0.0366192 6.4847 0.00047752 3.89809C-0.0165304 2.67069 0.328588 1.66758 0.998273 0.998245C1.66796 0.32856 2.66717 -0.019038 3.89812 0.000804546C6.48438 0.0365919 9.55004 1.60734 10.9068 3.04238L15.2799 7.61289L32.5153 1.35364C32.7743 1.25939 33.0641 1.32423 33.2583 1.51876L37.9592 6.21966C38.1066 6.36706 38.1817 6.57187 38.1644 6.77915C38.1474 6.98714 38.0396 7.17636 37.8699 7.29754L24.2094 17.0516L35.0441 28.5088L41.6191 26.3471C41.8735 26.2631 42.1527 26.3301 42.3416 26.5193L44.7925 28.9698C44.9406 29.1183 45.0157 29.3249 44.9973 29.5339C44.9785 29.743 44.868 29.9329 44.6954 30.0527L36.0536 36.0536L30.053 44.6954C29.9333 44.8679 29.7434 44.9785 29.5339 44.9973C29.513 44.999 29.4918 44.9997 29.4709 44.9997Z" fill="black"/>
</g>
<path fill-rule="evenodd" clip-rule="evenodd" d="M5.53274 9.61931C5.52318 9.61931 5.51361 9.61895 5.50404 9.61825C5.30916 9.6023 5.16353 9.43187 5.17912 9.23663C5.22696 8.64242 5.39668 8.07726 5.68333 7.55746C5.77759 7.38596 5.99267 7.3236 6.16452 7.41856C6.33601 7.51281 6.39837 7.7286 6.30377 7.89974C6.06601 8.33096 5.92499 8.79974 5.88566 9.29332C5.87078 9.47899 5.71558 9.61931 5.53274 9.61931Z" fill="black"/>
<path fill-rule="evenodd" clip-rule="evenodd" d="M7.50684 6.56996C7.38176 6.56996 7.26093 6.50406 7.19644 6.38677C7.10148 6.21563 7.1642 5.99984 7.33534 5.90559C7.8555 5.61858 8.4203 5.44886 9.01451 5.40173C9.20939 5.38472 9.38054 5.53142 9.39577 5.72665C9.41136 5.92154 9.26609 6.09232 9.07085 6.10791C8.57762 6.1476 8.10884 6.28791 7.67762 6.52602C7.62341 6.55579 7.56459 6.56996 7.50684 6.56996Z" fill="black"/>
</svg>
