<?xml version="1.0" encoding="UTF-8"?>
<svg width="27" height="30" viewBox="0 0 27 30" fill="none" xmlns="http://www.w3.org/2000/svg">
<mask id="mask099" mask-type="alpha" maskUnits="userSpaceOnUse" x="0" y="0" width="27" height="30">
<path fill-rule="evenodd" clip-rule="evenodd" d="M0 0.234375H26.2017V29.9903H0V0.234375Z" fill="white"/>
</mask>
<g mask="url(#mask099)">
<path fill-rule="evenodd" clip-rule="evenodd" d="M1.02024 4.93875C0.918751 6.26602 0.754454 10.1149 1.76742 14.4347C3.4125 21.4505 7.22484 26.3527 13.1006 29.0081C18.9848 26.3491 22.7998 21.4376 24.4409 14.4066C25.4482 10.0915 25.2834 6.26156 25.1817 4.93875C18.2304 6.03914 14.277 2.63438 13.1006 1.40133C11.9241 2.63461 7.97063 6.03867 1.02024 4.93875ZM13.1006 29.9904C13.0364 29.9904 12.972 29.977 12.9117 29.9505C6.72445 27.2252 2.55281 21.9239 0.847736 14.6198C-0.432889 9.13336 0.111095 4.52695 0.134767 4.33359C0.150705 4.20516 0.218673 4.08914 0.32297 4.01273C0.427501 3.93633 0.558517 3.90609 0.685783 3.93C8.72461 5.42531 12.6914 0.456328 12.7305 0.405937C12.9082 0.177187 13.2933 0.177187 13.4709 0.405937C13.6315 0.610781 17.5034 5.4218 25.5159 3.93C25.6425 3.90516 25.7742 3.93633 25.8788 4.01273C25.983 4.08914 26.051 4.20516 26.067 4.33359C26.0906 4.52695 26.6346 9.13336 25.354 14.6198C23.6489 21.9239 19.4773 27.2252 13.2898 29.9505C13.2295 29.977 13.1651 29.9904 13.1006 29.9904Z" fill="#787878"/>
</g>
<path fill-rule="evenodd" clip-rule="evenodd" d="M11.5784 20.5458H14.6234V16.8659C14.6234 16.7363 14.7281 16.6315 14.8577 16.6315H18.5342V13.5835H14.8577C14.7281 13.5835 14.6234 13.4787 14.6234 13.3491V9.66943H11.5784V13.3491C11.5784 13.4787 11.4734 13.5835 11.344 13.5835H7.66736V16.6315H11.344C11.4734 16.6315 11.5784 16.7363 11.5784 16.8659V20.5458ZM14.8577 21.0146H11.344C11.2146 21.0146 11.1096 20.9098 11.1096 20.7802V17.1003H7.43298C7.30361 17.1003 7.19861 16.9955 7.19861 16.8659V13.3491C7.19861 13.2195 7.30361 13.1147 7.43298 13.1147H11.1096V9.43506C11.1096 9.30545 11.2146 9.20068 11.344 9.20068H14.8577C14.9871 9.20068 15.0921 9.30545 15.0921 9.43506V13.1147H18.7685C18.8979 13.1147 19.0029 13.2195 19.0029 13.3491V16.8659C19.0029 16.9955 18.8979 17.1003 18.7685 17.1003H15.0921V20.7802C15.0921 20.9098 14.9871 21.0146 14.8577 21.0146Z" fill="#787878"/>
</svg>
