<?xml version="1.0" encoding="UTF-8"?>
<svg width="17" height="30" viewBox="0 0 17 30" fill="none" xmlns="http://www.w3.org/2000/svg">
<mask id="mask22" mask-type="alpha" maskUnits="userSpaceOnUse" x="0" y="0" width="17" height="23">
<path fill-rule="evenodd" clip-rule="evenodd" d="M0 0.232666H16.9065V22.6901H0V0.232666Z" fill="white"/>
</mask>
<g mask="url(#mask22)">
<path fill-rule="evenodd" clip-rule="evenodd" d="M5.6545 21.7599H11.2517C11.3254 18.7748 12.4233 15.7971 14.3624 13.3413C15.4182 12.0039 15.9764 10.3946 15.9764 8.68688C15.9764 6.60199 15.0994 4.59222 13.5708 3.17269C12.021 1.73362 9.99846 1.0292 7.8773 1.18501C4.29404 1.45129 1.32404 4.34385 0.96869 7.91385C0.773109 9.87641 1.33102 11.8018 2.53916 13.3352C4.48078 15.7999 5.58055 18.7799 5.6545 21.7599ZM11.7131 22.6901H5.19334C4.9366 22.6901 4.72823 22.4818 4.72823 22.225V22.0813C4.72823 19.2025 3.69125 16.3008 1.80846 13.9108C0.450551 12.1876 -0.176426 10.025 0.0428763 7.82153C0.442411 3.80874 3.78102 0.556643 7.80846 0.257573C10.1903 0.0780381 12.4619 0.873852 14.2038 2.49106C15.9212 4.08594 16.9066 6.34408 16.9066 8.68688C16.9066 10.6057 16.2794 12.4143 15.0924 13.9176C13.2131 16.2983 12.1782 19.1969 12.1782 22.0806V22.225C12.1782 22.4818 11.9699 22.6901 11.7131 22.6901Z" fill="#787878"/>
</g>
<mask id="mask12" mask-type="alpha" maskUnits="userSpaceOnUse" x="4" y="23" width="9" height="7">
<path fill-rule="evenodd" clip-rule="evenodd" d="M4.74463 23.2892H12.1616V29.7684H4.74463V23.2892Z" fill="white"/>
</mask>
<g mask="url(#mask12)">
<path fill-rule="evenodd" clip-rule="evenodd" d="M5.67486 28.3199H6.63812C6.7837 28.3199 6.92068 28.388 7.00858 28.5038C7.0944 28.6166 7.62184 28.8383 8.453 28.8383C9.2844 28.8383 9.81161 28.6169 9.89719 28.5041C9.98509 28.388 10.1223 28.3199 10.2679 28.3199H11.2314V24.2194H5.67486V28.3199ZM8.453 29.7685C7.75719 29.7685 6.91347 29.6285 6.44788 29.2501H5.20975C4.953 29.2501 4.74463 29.0417 4.74463 28.785V23.7543C4.74463 23.4976 4.953 23.2892 5.20975 23.2892H11.6965C11.9532 23.2892 12.1616 23.4976 12.1616 23.7543V28.785C12.1616 29.0417 11.9532 29.2501 11.6965 29.2501H10.4581C9.99277 29.6285 9.14905 29.7685 8.453 29.7685Z" fill="#787878"/>
</g>
<path fill-rule="evenodd" clip-rule="evenodd" d="M8.45314 22.4576C8.32477 22.4576 8.22058 22.3536 8.22058 22.225V9.36269C8.22058 9.23431 8.32477 9.13013 8.45314 9.13013C8.58151 9.13013 8.6857 9.23431 8.6857 9.36269V22.225C8.6857 22.3536 8.58151 22.4576 8.45314 22.4576Z" fill="#787878"/>
<path fill-rule="evenodd" clip-rule="evenodd" d="M7.27554 10.7728C7.21391 10.7728 7.15461 10.7484 7.11112 10.7047L5.93368 9.52722C5.84275 9.43629 5.84275 9.28908 5.93368 9.19815C6.02461 9.10745 6.17158 9.10745 6.26251 9.19815L7.27554 10.2114L8.28856 9.19815C8.37949 9.10745 8.5267 9.10745 8.61763 9.19815L9.63065 10.2114L10.6437 9.19815C10.7346 9.10745 10.8818 9.10745 10.9725 9.19815C11.0634 9.28908 11.0634 9.43629 10.9725 9.52722L9.79507 10.7047C9.70414 10.7956 9.55716 10.7956 9.46623 10.7047L8.45298 9.69164L7.43996 10.7047C7.39647 10.7484 7.33716 10.7728 7.27554 10.7728Z" fill="#787878"/>
</svg>
