<?xml version="1.0" encoding="UTF-8"?>
<svg width="45" height="45" viewBox="0 0 45 45" fill="none" xmlns="http://www.w3.org/2000/svg">
<path fill-rule="evenodd" clip-rule="evenodd" d="M19.5192 32.9067C19.4915 32.9067 19.4634 32.9067 19.4356 32.9067H19.3308C19.2092 32.9067 19.0868 32.9067 18.9648 32.9028C18.8323 32.8983 18.7005 32.8898 18.569 32.881L18.4498 32.8729C18.3324 32.8652 18.215 32.8575 18.0979 32.8459C17.966 32.8329 17.8346 32.8156 17.7031 32.7977L17.5948 32.7836C17.4753 32.7678 17.3554 32.752 17.2362 32.7323C17.1068 32.7109 16.9782 32.6852 16.8495 32.6592L16.737 32.6367C16.6182 32.6131 16.4993 32.5892 16.3816 32.5615C16.2497 32.5309 16.1186 32.4954 15.9875 32.4595L15.947 32.4486C13.7329 31.8499 11.7061 30.6771 10.0861 29.0567C8.53679 27.5074 7.3907 25.5844 6.77265 23.4964C6.69847 23.2451 6.63413 22.9909 6.57472 22.736L6.52866 22.5244C6.48542 22.3243 6.44745 22.1239 6.4137 21.9225L6.38206 21.7337C6.34304 21.477 6.3107 21.2197 6.28714 20.9613L6.2773 20.8267C6.25972 20.6104 6.24741 20.3928 6.24038 20.1752C6.23792 20.101 6.23616 20.0261 6.23511 19.9516C6.23195 19.7344 6.23335 19.5167 6.24073 19.2988L6.24425 19.1655C6.2555 18.9064 6.27554 18.6477 6.30191 18.39L6.32476 18.1987C6.34866 17.9973 6.37679 17.7962 6.40984 17.5947L6.4464 17.3799C6.53991 16.867 6.66472 16.3548 6.818 15.858L6.87671 15.6763C6.94913 15.4544 7.01734 15.2611 7.09011 15.0691L7.15972 14.8852C7.25956 14.6332 7.36468 14.3895 7.47155 14.161L7.53413 14.0345C7.63011 13.8351 7.73136 13.6386 7.83753 13.4442C7.8748 13.3756 7.91241 13.3078 7.95109 13.2403C8.06148 13.0466 8.17644 12.8557 8.29737 12.6669L8.37296 12.5456C8.51429 12.3297 8.67038 12.1072 8.83737 11.884L8.96253 11.7219C9.09226 11.5538 9.2262 11.3886 9.36437 11.2262L9.39179 11.1938C9.43362 11.145 9.47546 11.0954 9.51835 11.0472C9.7212 10.817 9.90718 10.6176 10.0861 10.4383C11.343 9.1815 12.8083 8.20837 14.4416 7.54603C19.3561 5.55302 24.9551 6.68822 28.7049 10.438C28.8835 10.6166 29.0705 10.817 29.2765 11.0508C29.3198 11.1 29.3626 11.1499 29.4048 11.1998C29.5644 11.3876 29.7012 11.556 29.833 11.7268L29.9519 11.8804C30.1206 12.1065 30.2781 12.3308 30.4198 12.547L30.4901 12.6595C30.6132 12.8522 30.7306 13.0469 30.8424 13.2442C30.8796 13.3088 30.9162 13.3742 30.9521 13.44C31.0607 13.6393 31.1644 13.8404 31.2621 14.044L31.318 14.1568C31.4267 14.3888 31.5325 14.6346 31.633 14.8888L31.6995 15.0635C31.7733 15.2586 31.8429 15.4551 31.9076 15.6534L31.9726 15.8552C32.127 16.3548 32.2525 16.8695 32.3457 17.3838L32.3805 17.5895C32.4146 17.7948 32.4434 18.0001 32.4676 18.2061L32.4894 18.3861C32.5162 18.6463 32.5362 18.9064 32.5475 19.1669L32.5506 19.2924C32.558 19.5132 32.5598 19.7344 32.5566 19.9555L32.5513 20.1717C32.5443 20.3932 32.532 20.6143 32.5137 20.8354L32.5049 20.9585C32.481 21.2186 32.4483 21.4774 32.4093 21.7358L32.3787 21.9176C32.3446 22.1218 32.3059 22.3247 32.2623 22.5268L32.217 22.7342C32.1505 23.0208 32.0859 23.27 32.0187 23.4961C31.741 24.4351 31.3483 25.3551 30.8522 26.2309C30.7562 26.4 30.5421 26.459 30.373 26.3634C30.2039 26.2678 30.1449 26.0533 30.2405 25.8842C30.7102 25.0549 31.0818 24.1844 31.3444 23.2967C31.4151 23.058 31.4759 22.8169 31.5321 22.5753L31.575 22.3795C31.6162 22.1876 31.6527 21.9952 31.6847 21.8026L31.7143 21.6296C31.7512 21.3856 31.7817 21.1402 31.8046 20.8945L31.813 20.7767C31.8303 20.5686 31.8419 20.3591 31.8485 20.1492L31.8535 19.9439C31.8566 19.7351 31.8549 19.5259 31.8478 19.3163L31.845 19.1986C31.8345 18.9511 31.8155 18.705 31.7898 18.4589L31.7694 18.288C31.7466 18.0929 31.7192 17.8985 31.6868 17.7044L31.6541 17.5097C31.5655 17.0224 31.4467 16.5355 31.3005 16.0619L31.2393 15.8717C31.1781 15.6844 31.1124 15.498 31.0417 15.3131L30.9798 15.1482C30.8842 14.9067 30.784 14.6743 30.6817 14.4563L30.6286 14.3488C30.5358 14.1561 30.4381 13.9656 30.3347 13.7768C30.301 13.7149 30.2665 13.653 30.2314 13.5919C30.1252 13.4052 30.0141 13.2206 29.8977 13.0388L29.8313 12.932C29.6977 12.7281 29.5486 12.5157 29.389 12.302L29.2758 12.1561C29.151 11.9944 29.0216 11.8347 28.8877 11.6772L28.7492 11.5159C28.5502 11.2898 28.3783 11.1056 28.2078 10.9354C24.6584 7.38572 19.3582 6.31134 14.706 8.19748C13.1602 8.82466 11.7733 9.74576 10.5836 10.9351C10.4152 11.1038 10.2391 11.293 10.045 11.5127C10.0049 11.5584 9.96624 11.6038 9.92722 11.6495L9.8998 11.6818C9.76902 11.8354 9.6421 11.9919 9.51976 12.1508L9.40023 12.3048C9.24237 12.5164 9.09472 12.727 8.96148 12.9306L8.88976 13.0452C8.77515 13.2245 8.66616 13.4052 8.5621 13.5883C8.52554 13.652 8.49003 13.7163 8.45487 13.7806C8.35433 13.9649 8.25835 14.1508 8.168 14.3389L8.10823 14.4595C8.00241 14.6852 7.90468 14.9141 7.81327 15.1451L7.74788 15.318C7.67862 15.5001 7.61394 15.6833 7.55382 15.8675L7.48984 16.0658C7.34499 16.5355 7.22652 17.0203 7.13827 17.5061L7.10382 17.7094C7.07253 17.8995 7.04546 18.0901 7.02331 18.2813L7.00152 18.462C6.9762 18.706 6.95722 18.9507 6.94667 19.1958L6.94351 19.322C6.93648 19.529 6.93507 19.7351 6.93823 19.9411C6.93929 20.0117 6.9407 20.082 6.94316 20.152C6.94984 20.3587 6.96144 20.5647 6.97831 20.7704L6.98745 20.8973C7.0096 21.1413 7.04019 21.3853 7.0771 21.6282L7.10734 21.8068C7.13933 21.997 7.17519 22.1872 7.21597 22.3763L7.25991 22.5774C7.31581 22.8183 7.37628 23.0587 7.44695 23.2967C8.03195 25.2729 9.11652 27.0926 10.5836 28.5596C12.1167 30.0931 14.0349 31.203 16.1309 31.7701L16.172 31.781C16.2951 31.8147 16.4178 31.8481 16.5415 31.877C16.6526 31.903 16.7637 31.9251 16.8744 31.9473L16.988 31.9698C17.1089 31.9944 17.2295 32.0186 17.3508 32.0387C17.4626 32.057 17.5744 32.0717 17.6866 32.0865L17.7962 32.1009C17.9196 32.1174 18.043 32.134 18.1668 32.1463C18.2768 32.1572 18.3862 32.1642 18.4955 32.1712L18.6161 32.1793C18.7398 32.1877 18.8636 32.1958 18.9877 32.2001C19.1016 32.2036 19.2162 32.2036 19.3301 32.2036H19.4366C19.5611 32.2036 19.6855 32.2039 19.8096 32.1997C19.9235 32.1962 20.0378 32.1885 20.1521 32.1807L20.266 32.1733C20.3873 32.1656 20.5082 32.1579 20.6295 32.1456C20.7437 32.1343 20.858 32.1192 20.9719 32.1041L21.0823 32.0897C21.2036 32.0735 21.3249 32.0577 21.4458 32.0376C21.5551 32.0197 21.6641 31.9979 21.7735 31.9761L21.8965 31.9515C22.016 31.9276 22.1356 31.9037 22.2544 31.8759C22.3651 31.8499 22.4755 31.82 22.5856 31.7901L22.6478 31.7733C23.6522 31.5029 24.6229 31.1053 25.5327 30.5917C25.7022 30.4964 25.9163 30.5558 26.0116 30.7249C26.1072 30.894 26.0474 31.1085 25.8783 31.2041C24.9171 31.7465 23.892 32.1667 22.831 32.4525L22.7694 32.469C22.6517 32.501 22.5335 32.5326 22.4151 32.5608C22.2882 32.5903 22.1609 32.6156 22.0336 32.6409L21.9109 32.6655C21.7946 32.6887 21.6778 32.7119 21.5608 32.7313C21.4317 32.7527 21.3027 32.7696 21.1737 32.7868L21.0644 32.8012C20.9427 32.8174 20.8211 32.8332 20.6991 32.8455C20.5701 32.8582 20.4407 32.8666 20.311 32.8751L20.1985 32.8824C20.0768 32.8905 19.9548 32.8986 19.8328 32.9025C19.7284 32.906 19.6237 32.9067 19.5192 32.9067Z" fill="black"/>
<mask id="mask01" mask-type="alpha" maskUnits="userSpaceOnUse" x="0" y="0" width="39" height="40">
<path fill-rule="evenodd" clip-rule="evenodd" d="M0.00012207 0.351562H38.7915V39.1433H0.00012207V0.351562Z" fill="white"/>
</mask>
<g mask="url(#mask01)">
<path fill-rule="evenodd" clip-rule="evenodd" d="M16.422 39.1433C16.2356 39.1433 16.0567 39.0695 15.9248 38.9377C15.793 38.8055 15.7188 38.6269 15.7188 38.4402V36.9735C15.5888 36.9457 15.4562 36.9158 15.3202 36.8835C15.2572 36.8684 15.1943 36.8515 15.1321 36.835L15.028 36.8072C14.802 36.7495 14.5763 36.6901 14.352 36.6237C14.2676 36.5984 14.1839 36.5713 14.1002 36.5439L14.0039 36.5126C13.8007 36.4475 13.5968 36.3804 13.395 36.3073C13.2864 36.2679 13.1791 36.2264 13.0719 36.1849L13.0332 36.1698C12.8381 36.0946 12.6434 36.0162 12.4504 35.9336L12.3931 35.9104C12.3544 35.8952 12.3154 35.8798 12.277 35.8629C12.2486 35.8506 12.2215 35.8362 12.1951 35.82C11.3595 35.4463 10.5611 35.0139 9.81329 34.5301L8.77794 35.5651C8.50336 35.8397 8.05829 35.8397 7.78372 35.5651L3.57797 31.3597C3.3034 31.0852 3.3034 30.6401 3.57797 30.3655L4.61333 29.3302C4.12922 28.5824 3.69645 27.7833 3.32239 26.9466C3.30692 26.9212 3.29286 26.8945 3.28055 26.8668C3.26333 26.8277 3.24786 26.7884 3.23239 26.7493L3.20954 26.6924C3.12727 26.4997 3.04887 26.3053 2.97364 26.1102C2.91879 25.9696 2.87626 25.8595 2.83618 25.7484C2.76305 25.547 2.69625 25.3434 2.63086 25.1395L2.59817 25.039C2.57145 24.9564 2.54438 24.8741 2.51977 24.7908C2.45333 24.5682 2.39426 24.3439 2.33731 24.1196L2.30954 24.0159C2.29231 23.9516 2.27508 23.8869 2.25961 23.8219C2.22762 23.6862 2.19774 23.554 2.16961 23.4246H0.703247C0.314771 23.4246 0.00012207 23.1096 0.00012207 22.7215V16.7738C0.00012207 16.3856 0.314771 16.0706 0.703247 16.0706H2.16856C2.61645 13.9542 3.43665 11.9721 4.61262 10.1644L3.57797 9.12973C3.3034 8.85516 3.3034 8.41008 3.57797 8.13551L7.78372 3.92977C8.05793 3.6552 8.50336 3.6552 8.77794 3.92977L9.81258 4.96441C11.6203 3.78879 13.6021 2.96859 15.7188 2.52035V1.05469C15.7188 0.666562 16.0335 0.351562 16.422 0.351562H22.3693C22.7578 0.351562 23.0725 0.666562 23.0725 1.05469L23.0728 2.52035C25.1892 2.96824 27.171 3.78844 28.9787 4.96441L30.0134 3.92977C30.2876 3.6552 30.733 3.6552 31.0076 3.92977L35.2137 8.13516C35.3455 8.26699 35.4197 8.44594 35.4197 8.63227C35.4197 8.81895 35.3455 8.99754 35.2137 9.12973L34.179 10.1644C35.3547 11.9718 36.1749 13.9535 36.6231 16.0703H38.0884C38.4769 16.0703 38.7915 16.3853 38.7915 16.7734V22.7211C38.7915 23.1096 38.4769 23.4243 38.0884 23.4243L36.622 23.4246C36.5939 23.5543 36.5637 23.6869 36.5317 23.8229C36.5166 23.8869 36.4993 23.9509 36.4821 24.0145L36.455 24.1165C36.3974 24.3418 36.3383 24.5675 36.2715 24.7915C36.2466 24.8755 36.2195 24.9588 36.1921 25.0425L36.1608 25.1388C36.0957 25.3427 36.0282 25.5463 35.9551 25.7488C35.9168 25.855 35.876 25.9604 35.8352 26.0659L35.818 26.1098C35.7428 26.3046 35.6644 26.4994 35.5818 26.6927L35.5593 26.749C35.5434 26.7887 35.528 26.8284 35.5104 26.8675C35.4981 26.8952 35.484 26.922 35.4686 26.948C35.0868 27.8009 34.6308 28.633 34.1122 29.4219C33.9962 29.5987 33.8067 29.7137 33.5961 29.7355C33.3848 29.7573 33.1767 29.6824 33.0273 29.5334L30.0492 26.5549C29.7743 26.2804 29.7743 25.8353 30.0492 25.5604C30.3234 25.2858 30.7692 25.2858 31.0434 25.5604L33.3943 27.9112C33.7009 27.386 33.9776 26.845 34.2198 26.2944C34.2293 26.2733 34.2398 26.2526 34.2511 26.2322C34.2634 26.2009 34.2761 26.1693 34.2894 26.1383C34.365 25.9615 34.4371 25.7825 34.5063 25.6029L34.5239 25.5579C34.5608 25.4623 34.5977 25.367 34.6325 25.271C34.7 25.0847 34.7616 24.8973 34.8217 24.7092L34.8554 24.6059C34.879 24.5338 34.9025 24.4617 34.924 24.3893C34.9855 24.184 35.0397 23.9762 35.0924 23.7688L35.1247 23.6479C35.1381 23.5983 35.1515 23.5487 35.1634 23.4988C35.2383 23.1817 35.2998 22.8871 35.3511 22.5981C35.4109 22.2627 35.7027 22.0184 36.0437 22.0184H37.3853V17.4765H36.0437C35.7027 17.4765 35.4113 17.2322 35.3515 16.8964C34.9377 14.5684 34.044 12.4095 32.6958 10.4794C32.5003 10.1999 32.5337 9.82055 32.7749 9.57973L33.7216 8.63262L30.5108 5.42145L29.5634 6.36855C29.3225 6.60938 28.9432 6.64277 28.6637 6.44766C26.7333 5.09906 24.5743 4.20539 22.2466 3.79195C21.9109 3.73219 21.6666 3.44039 21.6666 3.09973V1.75781H17.1251V3.09973C17.1251 3.44074 16.8804 3.73254 16.545 3.79195C14.217 4.20574 12.058 5.09941 10.1279 6.44766C9.84879 6.64277 9.46911 6.60938 9.22829 6.36855L8.28083 5.42145L5.0693 8.63262L6.01641 9.57973C6.25758 9.8209 6.29098 10.2002 6.09586 10.4797C4.74727 12.4098 3.8536 14.5691 3.44016 16.8968C3.3804 17.2322 3.08895 17.4769 2.74793 17.4769H1.40637V22.0184H2.74793C3.0886 22.0184 3.3804 22.2627 3.44016 22.5981C3.49114 22.8853 3.55266 23.1796 3.6279 23.4984C3.6402 23.5487 3.65391 23.5993 3.66727 23.6496L3.69961 23.7716C3.75235 23.9787 3.80649 24.185 3.86731 24.3896C3.8884 24.4603 3.91161 24.5313 3.93481 24.602L3.96997 24.7099C4.03008 24.898 4.09161 25.085 4.15875 25.2703C4.19497 25.3709 4.23399 25.4707 4.27266 25.5705C4.35458 25.7829 4.42629 25.9611 4.50223 26.1387L4.5402 26.2325C4.55145 26.2526 4.562 26.2733 4.57149 26.2944C4.99934 27.2647 5.51227 28.1802 6.09586 29.0152C6.29133 29.2946 6.25793 29.674 6.01676 29.9152L5.06965 30.8626L8.28083 34.0738L9.22829 33.1267C9.46911 32.8855 9.84879 32.8521 10.1279 33.0476C10.9636 33.6312 11.8791 34.1441 12.8487 34.572C12.8701 34.5811 12.8909 34.5916 12.9113 34.6029C12.9425 34.6155 12.9738 34.6279 13.0048 34.6412C13.182 34.7168 13.3606 34.7889 13.5406 34.8585L13.5799 34.8736C13.6773 34.9112 13.775 34.9492 13.8731 34.9847C14.0588 35.0518 14.2461 35.1134 14.4339 35.1735L14.5376 35.2072C14.6097 35.2308 14.6814 35.2543 14.7541 35.2761C14.9595 35.3373 15.1676 35.3918 15.3754 35.4445L15.4977 35.4769C15.5466 35.4899 15.5951 35.5032 15.6447 35.5152C15.9611 35.5901 16.2557 35.6516 16.5454 35.7033C16.8807 35.763 17.1251 36.0545 17.1251 36.3955V37.7371H21.6662V36.3955C21.6662 36.0545 21.9106 35.763 22.2463 35.7033L22.2815 35.6955C22.5634 35.6449 22.8531 35.5845 23.1431 35.5159C23.1997 35.5025 23.256 35.4874 23.3129 35.472L23.4363 35.4393C23.6371 35.3879 23.8364 35.3359 24.034 35.2768C24.1117 35.254 24.189 35.2283 24.2667 35.203L24.3676 35.1703C24.5515 35.1112 24.7332 35.0515 24.9139 34.9861C25.0236 34.9464 25.1323 34.9042 25.2406 34.8623C25.4339 34.7875 25.609 34.7171 25.7827 34.6426C25.8147 34.6289 25.8473 34.6162 25.8797 34.6032C25.9001 34.592 25.9212 34.5811 25.9426 34.572C26.4932 34.329 27.0346 34.0527 27.5595 33.7461L25.2086 31.3949C24.9336 31.1203 24.9336 30.6752 25.2086 30.4007C25.4828 30.1261 25.9286 30.1261 26.2028 30.4007L29.1812 33.3791C29.3306 33.5285 29.4052 33.7377 29.3837 33.9479C29.3619 34.1582 29.247 34.3477 29.0705 34.4637C28.2819 34.9819 27.4501 35.4379 26.5965 35.82C26.5702 35.8362 26.5424 35.8506 26.5139 35.8632C26.4749 35.8805 26.4352 35.8959 26.3958 35.9114L26.3367 35.9353C26.1472 36.0162 25.957 36.0928 25.7658 36.167C25.6308 36.2194 25.5116 36.2654 25.3917 36.3087C25.1956 36.3797 24.9969 36.4451 24.7979 36.5091L24.7041 36.5396C24.6148 36.5688 24.5258 36.5977 24.4358 36.6247C24.22 36.6891 24.0031 36.7457 23.7858 36.8012L23.6789 36.8297C23.6082 36.8487 23.5379 36.8677 23.4673 36.8845C23.3354 36.9155 23.2036 36.9454 23.0725 36.9731L23.0728 38.4402C23.0728 38.6265 22.999 38.8055 22.8668 38.9373C22.735 39.0691 22.556 39.1433 22.3697 39.1433H16.422Z" fill="black"/>
</g>
<mask id="mask12" mask-type="alpha" maskUnits="userSpaceOnUse" x="9" y="9" width="36" height="36">
<path fill-rule="evenodd" clip-rule="evenodd" d="M9.54919 9.90125H44.6484V44.9963H9.54919V9.90125Z" fill="white"/>
</mask>
<g mask="url(#mask12)">
<path fill-rule="evenodd" clip-rule="evenodd" d="M21.944 26.4331C22.1271 26.4331 22.3068 26.5048 22.4414 26.6391L30.0939 34.2919C30.2784 34.4761 30.3456 34.7472 30.2686 34.9961C29.5402 37.3568 30.1709 39.9067 31.915 41.6505C34.5025 44.238 38.7117 44.2376 41.2989 41.6505C42.5522 40.3975 43.2423 38.7311 43.2423 36.9585C43.2423 35.1863 42.5522 33.5202 41.2989 32.2669C39.5548 30.5228 37.0045 29.8921 34.6445 30.6206C34.3963 30.6972 34.1242 30.6301 33.94 30.4458L26.2872 22.793C26.0896 22.5954 26.0277 22.2994 26.13 22.0393C27.2719 19.1273 26.5818 15.8173 24.3715 13.6074C22.664 11.8999 20.2765 11.0884 17.9154 11.3581L22.6031 16.0458C22.8348 16.2775 22.8756 16.6389 22.7016 16.9163L20.4224 20.5518C20.3661 20.6418 20.2899 20.7181 20.2002 20.7743L16.5643 23.0532C16.287 23.2272 15.9256 23.1868 15.6939 22.9547L11.0061 18.267C10.7365 20.6277 11.5479 23.0156 13.2554 24.7234C15.4654 26.9334 18.775 27.6235 21.6877 26.4816C21.7706 26.4489 21.8578 26.4331 21.944 26.4331ZM36.6069 44.9963C34.5475 44.9963 32.4884 44.2127 30.9207 42.6451C28.9088 40.6331 28.1191 37.7365 28.8089 34.9954L21.7632 27.9497C18.4403 29.0649 14.7563 28.2131 12.2612 25.7177C9.8945 23.351 8.98782 19.8758 9.89555 16.6488C9.9634 16.4083 10.1532 16.222 10.3948 16.1587C10.6363 16.0958 10.8929 16.1654 11.0698 16.3418L16.2922 21.5643L19.3167 19.6683L21.2123 16.6442L15.9902 11.4214C15.8138 11.2449 15.7438 10.9879 15.8071 10.7464C15.8704 10.5049 16.0567 10.315 16.2972 10.2475C19.5241 9.34013 22.999 10.2461 25.3657 12.6128C27.8615 15.1086 28.7133 18.7926 27.5981 22.1152L34.6438 29.1609C37.3846 28.4708 40.2811 29.2607 42.2931 31.2727C43.8118 32.7911 44.6486 34.8108 44.6486 36.9585C44.6486 39.1066 43.8118 41.1259 42.2931 42.6451C40.7255 44.2127 38.666 44.9963 36.6069 44.9963Z" fill="black"/>
</g>
<path fill-rule="evenodd" clip-rule="evenodd" d="M36.607 33.7997C35.7633 33.7997 34.9698 34.1284 34.3732 34.725C33.7766 35.3216 33.4479 36.1151 33.4479 36.9588C33.4479 37.8026 33.7766 38.596 34.3732 39.1927C34.9698 39.7893 35.7633 40.118 36.607 40.118C37.4508 40.118 38.2442 39.7893 38.8408 39.1927C39.4374 38.596 39.7662 37.8026 39.7662 36.9588C39.7662 36.1151 39.4374 35.3216 38.8408 34.725C38.2442 34.1284 37.4508 33.7997 36.607 33.7997ZM36.607 40.8211C35.5752 40.8211 34.6056 40.4193 33.8761 39.6898C33.1466 38.9603 32.7448 37.9903 32.7448 36.9588C32.7448 35.927 33.1466 34.957 33.8761 34.2279C34.6056 33.4984 35.5752 33.0966 36.607 33.0966C37.6385 33.0966 38.6085 33.4984 39.338 34.2279C40.0674 34.957 40.4693 35.9273 40.4693 36.9588C40.4693 37.9903 40.0674 38.9603 39.338 39.6898C38.6085 40.4193 37.6385 40.8211 36.607 40.8211Z" fill="black"/>
</svg>
