<?xml version="1.0" encoding="UTF-8"?>
<svg width="30" height="30" viewBox="0 0 30 30" fill="none" xmlns="http://www.w3.org/2000/svg">
<mask id="mask011" mask-type="alpha" maskUnits="userSpaceOnUse" x="0" y="0" width="30" height="30">
<path fill-rule="evenodd" clip-rule="evenodd" d="M0 0H30V29.9998H0V0Z" fill="white"/>
</mask>
<g mask="url(#mask011)">
<path fill-rule="evenodd" clip-rule="evenodd" d="M18.7248 27.9369L19.5815 28.7937L23.3082 23.4268C23.3403 23.3805 23.3804 23.3403 23.4267 23.3084L28.7937 19.5816L27.7652 18.5528L23.362 20.0009C23.1756 20.0618 22.9713 20.0018 22.8478 19.8501C22.8078 19.8008 22.7674 19.7519 22.7256 19.7075L15.0806 11.6228C14.9866 11.5236 14.9403 11.3885 14.9535 11.2527C14.9667 11.1168 15.0381 10.9933 15.1493 10.9139L24.2436 4.42022L21.7167 1.89337L10.2194 6.06857C10.0434 6.13258 9.84618 6.08628 9.71673 5.95117L6.58658 2.67951C5.8087 1.85699 4.0165 0.965261 2.58547 0.945182C2.02209 0.937623 1.59902 1.06802 1.33351 1.33353C1.06799 1.59904 0.937364 2.02046 0.94516 2.5855C0.965002 4.01652 1.85697 5.80873 2.67736 6.58447L6.02579 9.78762C6.15784 9.914 6.20508 10.1049 6.14744 10.2783L2.22878 22.0524L4.4202 24.2438L10.9139 15.1494C10.9933 15.0381 11.1168 14.9665 11.2529 14.9535C11.3887 14.9396 11.5236 14.9866 11.623 15.0804L19.7082 22.7261C19.7632 22.7783 19.8289 22.8336 19.9089 22.895C20.0644 23.0143 20.13 23.217 20.0741 23.4046L18.7248 27.9369ZM19.6472 29.9998C19.5225 29.9998 19.4022 29.9505 19.3132 29.8616L17.8576 28.406C17.735 28.2834 17.6894 28.1037 17.7388 27.9372L19.08 23.4324C19.0727 23.4258 19.0656 23.4192 19.0588 23.4126L11.3677 16.1396L4.865 25.2466C4.78445 25.3597 4.65807 25.4318 4.51965 25.4431C4.38051 25.4535 4.24469 25.4044 4.14666 25.3064L1.35429 22.514C1.22768 22.3876 1.18351 22.2005 1.23996 22.0309L5.15673 10.2636L2.02634 7.26928C1.07177 6.36668 0.0243721 4.32313 0.000277657 2.59873C-0.0110609 1.78046 0.219018 1.11172 0.665475 0.665497C1.11193 0.21904 1.77807 -0.012692 2.5987 0.000536364C4.32288 0.0243946 6.36666 1.07156 7.27114 2.02825L10.1866 5.07526L21.6768 0.902426C21.8495 0.839592 22.0427 0.88282 22.1722 1.0125L25.3061 4.14644C25.4044 4.24471 25.4545 4.38125 25.4429 4.51943C25.4315 4.6581 25.3597 4.78424 25.2466 4.86502L16.1396 11.3677L23.3627 19.0059L27.746 17.5647C27.9156 17.5087 28.1018 17.5534 28.2277 17.6795L29.8616 19.3132C29.9604 19.4122 30.0104 19.5499 29.9982 19.6893C29.9856 19.8286 29.9119 19.9553 29.7969 20.0351L24.0357 24.0357L20.0353 29.7969C19.9555 29.912 19.8289 29.9857 19.6893 29.9982C19.6753 29.9994 19.6611 29.9998 19.6472 29.9998Z" fill="#787878"/>
</g>
<path fill-rule="evenodd" clip-rule="evenodd" d="M3.68841 6.41279C3.68204 6.41279 3.67566 6.41255 3.66928 6.41208C3.53936 6.40145 3.44227 6.28783 3.45267 6.15767C3.48456 5.76153 3.59771 5.38476 3.78881 5.03822C3.85164 4.92389 3.99503 4.88232 4.1096 4.94563C4.22393 5.00846 4.2655 5.15232 4.20243 5.26641C4.04393 5.55389 3.94991 5.86641 3.92369 6.19547C3.91377 6.31925 3.8103 6.41279 3.68841 6.41279Z" fill="#787878"/>
<path fill-rule="evenodd" clip-rule="evenodd" d="M5.00456 4.37993C4.92117 4.37993 4.84062 4.336 4.79763 4.25781C4.73432 4.14371 4.77613 3.99985 4.89023 3.93702C5.237 3.74568 5.61353 3.63253 6.00968 3.60111C6.1396 3.58978 6.25369 3.68757 6.26385 3.81773C6.27424 3.94765 6.17739 4.06151 6.04723 4.0719C5.71842 4.09836 5.4059 4.1919 5.11842 4.35064C5.08227 4.37048 5.04306 4.37993 5.00456 4.37993Z" fill="#787878"/>
</svg>
