<?xml version="1.0" encoding="UTF-8"?>
<svg width="30" height="30" viewBox="0 0 30 30" fill="none" xmlns="http://www.w3.org/2000/svg">
<path fill-rule="evenodd" clip-rule="evenodd" d="M22.2638 2.95709C20.8415 2.95709 19.684 4.11433 19.684 5.53709C19.684 6.95961 20.8415 8.11709 22.2638 8.11709C23.6863 8.11709 24.8438 6.95961 24.8438 5.53709C24.8438 4.11433 23.6863 2.95709 22.2638 2.95709ZM22.2638 9.06197C20.3202 9.06197 18.7391 7.48047 18.7391 5.53709C18.7391 3.59347 20.3202 2.01221 22.2638 2.01221C24.2074 2.01221 25.7887 3.59347 25.7887 5.53709C25.7887 7.48047 24.2074 9.06197 22.2638 9.06197Z" fill="#787878"/>
<mask id="mask044" mask-type="alpha" maskUnits="userSpaceOnUse" x="14" y="9" width="16" height="9">
<path fill-rule="evenodd" clip-rule="evenodd" d="M14.5276 9.53186H29.9999V17.7405H14.5276V9.53186Z" fill="white"/>
</mask>
<g mask="url(#mask044)">
<path fill-rule="evenodd" clip-rule="evenodd" d="M15.4885 16.7956H29.0388C28.7953 13.2705 25.8496 10.4767 22.2638 10.4767C18.6777 10.4767 15.7321 13.2705 15.4885 16.7956ZM29.5276 17.7405H15C14.739 17.7405 14.5276 17.5289 14.5276 17.2681C14.5276 13.0022 17.9979 9.53186 22.2638 9.53186C26.5295 9.53186 30 13.0022 30 17.2681C30 17.5289 29.7884 17.7405 29.5276 17.7405Z" fill="#787878"/>
</g>
<path fill-rule="evenodd" clip-rule="evenodd" d="M7.73619 15.2166C6.31391 15.2166 5.15643 16.3739 5.15643 17.7966C5.15643 19.2191 6.31391 20.3766 7.73619 20.3766C9.15871 20.3766 10.3162 19.2191 10.3162 17.7966C10.3162 16.3739 9.15871 15.2166 7.73619 15.2166ZM7.73619 21.3215C5.79257 21.3215 4.21155 19.74 4.21155 17.7966C4.21155 15.853 5.79257 14.2717 7.73619 14.2717C9.67982 14.2717 11.2611 15.853 11.2611 17.7966C11.2611 19.74 9.67982 21.3215 7.73619 21.3215Z" fill="#787878"/>
<path fill-rule="evenodd" clip-rule="evenodd" d="M0.961067 29.0552H14.5114C14.2678 25.53 11.3222 22.7363 7.73634 22.7363C4.15028 22.7363 1.20461 25.53 0.961067 29.0552ZM15.0001 30H0.472563C0.211539 30 0.00012207 29.7884 0.00012207 29.5276C0.00012207 25.2617 3.47044 21.7914 7.73634 21.7914C12.002 21.7914 15.4726 25.2617 15.4726 29.5276C15.4726 29.7884 15.2609 30 15.0001 30Z" fill="#787878"/>
<path fill-rule="evenodd" clip-rule="evenodd" d="M2.28375 7.76669H10.2711C10.3927 7.76669 10.5097 7.8137 10.5975 7.8978L12.8584 10.0613V8.23913C12.8584 7.97835 13.0698 7.76669 13.3308 7.76669H14.7021V0.944882H2.28375V7.76669ZM13.3308 11.6398C13.2115 11.6398 13.0939 11.5946 13.0041 11.5089L10.0814 8.71157H1.81131C1.55052 8.71157 1.33887 8.49992 1.33887 8.23913V0.472441C1.33887 0.211654 1.55052 0 1.81131 0H15.1745C15.4356 0 15.647 0.211654 15.647 0.472441V8.23913C15.647 8.49992 15.4356 8.71157 15.1745 8.71157H13.8033V11.1673C13.8033 11.3565 13.6904 11.5276 13.5163 11.6017C13.4565 11.6275 13.3934 11.6398 13.3308 11.6398Z" fill="#787878"/>
<path fill-rule="evenodd" clip-rule="evenodd" d="M5.08548 3.67715C4.74627 3.67715 4.47037 3.95306 4.47037 4.29227C4.47037 4.63125 4.74627 4.90715 5.08548 4.90715C5.4247 4.90715 5.7006 4.63125 5.7006 4.29227C5.7006 3.95306 5.4247 3.67715 5.08548 3.67715ZM5.08548 5.37959C4.48596 5.37959 3.99792 4.8918 3.99792 4.29227C3.99792 3.69251 4.48596 3.20471 5.08548 3.20471C5.68501 3.20471 6.17304 3.69251 6.17304 4.29227C6.17304 4.8918 5.68501 5.37959 5.08548 5.37959Z" fill="#787878"/>
<path fill-rule="evenodd" clip-rule="evenodd" d="M8.49308 3.67715C8.15386 3.67715 7.87796 3.95306 7.87796 4.29227C7.87796 4.63125 8.15386 4.90715 8.49308 4.90715C8.83229 4.90715 9.10819 4.63125 9.10819 4.29227C9.10819 3.95306 8.83229 3.67715 8.49308 3.67715ZM8.49308 5.37959C7.89355 5.37959 7.40552 4.8918 7.40552 4.29227C7.40552 3.69251 7.89355 3.20471 8.49308 3.20471C9.0926 3.20471 9.58064 3.69251 9.58064 4.29227C9.58064 4.8918 9.0926 5.37959 8.49308 5.37959Z" fill="#787878"/>
<path fill-rule="evenodd" clip-rule="evenodd" d="M11.9005 3.67715C11.5613 3.67715 11.2854 3.95306 11.2854 4.29227C11.2854 4.63125 11.5613 4.90715 11.9005 4.90715C12.24 4.90715 12.5157 4.63125 12.5157 4.29227C12.5157 3.95306 12.24 3.67715 11.9005 3.67715ZM11.9005 5.37959C11.301 5.37959 10.813 4.8918 10.813 4.29227C10.813 3.69251 11.301 3.20471 11.9005 3.20471C12.5003 3.20471 12.9881 3.69251 12.9881 4.29227C12.9881 4.8918 12.5003 5.37959 11.9005 5.37959Z" fill="#787878"/>
</svg>
