<?xml version="1.0" encoding="UTF-8"?>
<svg width="20" height="30" viewBox="0 0 20 30" fill="none" xmlns="http://www.w3.org/2000/svg">
<mask id="mask077" mask-type="alpha" maskUnits="userSpaceOnUse" x="0" y="0" width="20" height="27">
<path fill-rule="evenodd" clip-rule="evenodd" d="M0 0H19.3353V26.3603H0V0Z" fill="white"/>
</mask>
<g mask="url(#mask077)">
<path fill-rule="evenodd" clip-rule="evenodd" d="M1.90913 13.6046L9.66709 25.0462L17.426 13.6046C18.0659 12.3624 18.3905 11.0291 18.3905 9.64134C18.3905 4.84606 14.4772 0.944882 9.66756 0.944882C4.85764 0.944882 0.944882 4.84606 0.944882 9.64134C0.944882 11.0291 1.26921 12.3624 1.90913 13.6046ZM9.66709 26.3603C9.51047 26.3603 9.36402 26.2826 9.27614 26.1529L1.11142 14.1116C1.10102 14.0965 1.09157 14.0806 1.08307 14.0641C0.364488 12.6794 0 11.1912 0 9.64134C0 4.3252 4.33677 0 9.66756 0C14.9983 0 19.3354 4.3252 19.3354 9.64134C19.3354 11.1912 18.9709 12.6794 18.2523 14.0641C18.2435 14.0806 18.2341 14.0965 18.2237 14.1116L10.058 26.1529C9.97016 26.2826 9.8237 26.3603 9.66709 26.3603Z" fill="#787878"/>
</g>
<mask id="mask15" mask-type="alpha" maskUnits="userSpaceOnUse" x="2" y="21" width="16" height="9">
<path fill-rule="evenodd" clip-rule="evenodd" d="M2.19922 21.775H17.1361V30H2.19922V21.775Z" fill="white"/>
</mask>
<g mask="url(#mask15)">
<path fill-rule="evenodd" clip-rule="evenodd" d="M16.6631 30C16.5896 30 16.5152 29.983 16.4455 29.9466L2.45393 22.667C2.2222 22.5466 2.1322 22.2612 2.25267 22.0299C2.37291 21.7982 2.65779 21.7077 2.88976 21.8287L16.8816 29.1085C17.1131 29.2288 17.2031 29.5141 17.0826 29.7456C16.9985 29.9074 16.8339 30 16.6631 30Z" fill="#787878"/>
</g>
<mask id="mask24" mask-type="alpha" maskUnits="userSpaceOnUse" x="2" y="21" width="16" height="9">
<path fill-rule="evenodd" clip-rule="evenodd" d="M2.19922 21.7753H17.1361V30.0001H2.19922V21.7753Z" fill="white"/>
</mask>
<g mask="url(#mask24)">
<path fill-rule="evenodd" clip-rule="evenodd" d="M2.67221 30.0001C2.50142 30.0001 2.33677 29.9075 2.25268 29.7457C2.13221 29.5142 2.22221 29.2289 2.4537 29.1086L16.4455 21.8288C16.6772 21.7081 16.9621 21.7985 17.0826 22.03C17.2031 22.2613 17.1131 22.5467 16.8813 22.6671L2.88977 29.9467C2.82008 29.9831 2.74567 30.0001 2.67221 30.0001Z" fill="#787878"/>
</g>
<path fill-rule="evenodd" clip-rule="evenodd" d="M9.66749 5.48843C7.37049 5.48843 5.50198 7.3515 5.50198 9.64119C5.50198 11.9311 7.37049 13.7942 9.66749 13.7942C11.9645 13.7942 13.833 11.9311 13.833 9.64119C13.833 7.3515 11.9645 5.48843 9.66749 5.48843ZM9.66749 14.2666C7.11017 14.2666 5.02954 12.1917 5.02954 9.64119C5.02954 7.09072 7.11017 5.01599 9.66749 5.01599C12.2248 5.01599 14.3054 7.09072 14.3054 9.64119C14.3054 12.1917 12.2248 14.2666 9.66749 14.2666Z" fill="#787878"/>
</svg>
