<?xml version="1.0" encoding="UTF-8"?>
<svg width="30" height="30" viewBox="0 0 30 30" fill="none" xmlns="http://www.w3.org/2000/svg">
<path fill-rule="evenodd" clip-rule="evenodd" d="M18.2427 2.44285C18.0769 2.44285 17.9104 2.44936 17.7434 2.46216C16.042 2.59285 14.4936 3.37797 13.3832 4.67332C11.0904 7.3475 11.4008 11.3882 14.0748 13.6808C15.3699 14.7912 17.0185 15.331 18.7218 15.2003C20.4229 15.0696 21.9713 14.2845 23.082 12.9891C25.3746 10.3149 25.0643 6.27425 22.3904 3.98169C21.2222 2.98029 19.7653 2.44285 18.2427 2.44285ZM18.2208 16.1498C16.4764 16.1498 14.8076 15.5345 13.4692 14.387C10.4057 11.7605 10.0504 7.13146 12.6767 4.06797C13.9492 2.58402 15.7232 1.68425 17.6722 1.53471C19.6206 1.38541 21.5118 2.00332 22.9957 3.27564C26.0592 5.90192 26.4148 10.531 23.7883 13.5945C22.516 15.0784 20.7418 15.9782 18.7927 16.1277C18.6015 16.1424 18.4108 16.1498 18.2208 16.1498Z" fill="#787878"/>
<path fill-rule="evenodd" clip-rule="evenodd" d="M19.3313 6.01042C18.8969 6.01042 18.4646 6.19274 18.1601 6.54786C17.6071 7.19298 17.682 8.16786 18.3271 8.72088H18.3274C18.972 9.27414 19.9469 9.19949 20.5004 8.55414C21.0532 7.90879 20.9785 6.93391 20.3334 6.38088C20.0434 6.13228 19.6864 6.01042 19.3313 6.01042ZM19.3288 9.55623C18.8664 9.55623 18.402 9.39786 18.0243 9.07414C17.1848 8.35414 17.0871 7.08507 17.8071 6.24507C18.5271 5.40507 19.7964 5.30786 20.636 6.02786C21.476 6.74786 21.5734 8.01693 20.8534 8.85693C20.4571 9.31902 19.8946 9.55623 19.3288 9.55623Z" fill="#787878"/>
<path fill-rule="evenodd" clip-rule="evenodd" d="M12.3019 13.1186L1.36194 25.8784C1.05054 26.2418 0.898912 26.7049 0.935656 27.1821C0.972401 27.6595 1.19263 28.0939 1.55612 28.4056C1.91961 28.7172 2.38473 28.8695 2.85984 28.8321C3.33728 28.7953 3.7717 28.5751 4.08333 28.2116L4.43659 28.5144L4.08333 28.2116L5.12984 26.9911L5.18798 24.237C5.1924 24.0218 5.3438 23.8379 5.5538 23.7923L7.18287 23.4374L7.12566 22.6949C7.11635 22.5718 7.15612 22.4502 7.23635 22.3565C7.31659 22.2628 7.43077 22.2049 7.5538 22.1956L9.06007 22.08L8.85356 19.3891C8.8338 19.1328 9.02566 18.9093 9.2817 18.8895L11.1487 18.7463L11.0961 18.0637C11.0868 17.9407 11.1266 17.8191 11.2071 17.7256C11.2873 17.6316 11.4012 17.5737 11.5245 17.5644L13.331 17.4258L15.0489 15.4221C14.4819 15.1481 13.9526 14.8011 13.4694 14.387C13.0303 14.0104 12.6394 13.5856 12.3019 13.1186ZM2.71845 29.7677C2.06938 29.7677 1.44868 29.5386 0.95054 29.1118C0.398447 28.6384 0.063796 27.9784 0.0082146 27.2535C-0.0475994 26.5284 0.182401 25.8251 0.655656 25.273L11.9973 12.0444C12.0947 11.9311 12.2398 11.8707 12.3898 11.8837C12.5391 11.8965 12.6729 11.9802 12.7496 12.1086C13.105 12.7023 13.5508 13.2314 14.0747 13.6807C14.6426 14.1677 15.2831 14.5474 15.9777 14.8093C16.1198 14.863 16.2264 14.9823 16.2643 15.1293C16.3019 15.276 16.2652 15.4321 16.1668 15.5472L13.9117 18.1774C13.8315 18.2711 13.7173 18.3291 13.5943 18.3386L12.0594 18.4563L12.1117 19.1388C12.1315 19.3951 11.9396 19.6186 11.6836 19.6384L9.81659 19.7816L10.0233 22.4723C10.0326 22.5953 9.99287 22.717 9.91263 22.8107C9.83217 22.9044 9.71821 22.9623 9.59519 22.9716L8.08891 23.0872L8.14124 23.7698C8.15915 24.0014 8.00356 24.2104 7.77659 24.2598L6.11007 24.623L6.05635 27.1772C6.05403 27.2849 6.01449 27.3884 5.94449 27.4702L4.78961 28.8172C4.31635 29.3691 3.65635 29.7039 2.93124 29.7595C2.86008 29.7651 2.78914 29.7677 2.71845 29.7677Z" fill="#787878"/>
<mask id="mask088" mask-type="alpha" maskUnits="userSpaceOnUse" x="18" y="0" width="12" height="26">
<path fill-rule="evenodd" clip-rule="evenodd" d="M18.5424 0.232666H29.1955V25.1885H18.5424V0.232666Z" fill="white"/>
</mask>
<g mask="url(#mask088)">
<path fill-rule="evenodd" clip-rule="evenodd" d="M24.6462 25.1885C21.7804 25.1887 19.16 19.9622 18.6337 13.1127C18.4832 11.1522 18.5188 9.26479 18.7397 7.5027C18.7716 7.24781 19.0018 7.06572 19.259 7.09898C19.5139 7.13107 19.6946 7.36363 19.6625 7.61828C19.4525 9.29456 19.4176 11.1699 19.5613 13.0415C20.0916 19.9464 22.6762 24.415 24.7555 24.2539C26.8358 24.0941 28.7067 19.2848 28.1767 12.3799C27.9348 9.22991 27.2232 6.3127 26.173 4.16572C25.2016 2.17921 24.0383 1.08549 22.9827 1.16735C22.1402 1.232 21.5025 2.02386 21.116 2.67665C20.9853 2.89758 20.6997 2.9706 20.479 2.83991C20.2579 2.70898 20.1846 2.42363 20.3158 2.2027C21.0311 0.994092 21.9288 0.315255 22.9113 0.239907C24.3897 0.125255 25.8439 1.37549 27.0088 3.75688C28.1095 6.00735 28.8534 9.04432 29.1041 12.3087C29.6411 19.3018 27.762 24.9562 24.8267 25.1815C24.7667 25.1862 24.7062 25.1885 24.6462 25.1885Z" fill="#787878"/>
</g>
</svg>
