<?xml version="1.0" encoding="UTF-8"?>
<svg width="38" height="45" viewBox="0 0 38 45" fill="none" xmlns="http://www.w3.org/2000/svg">
<path fill-rule="evenodd" clip-rule="evenodd" d="M5.43502 43.5827H36.1771V1.41732H5.43502V43.5827ZM36.8858 45H4.72636C4.33483 45 4.0177 44.6825 4.0177 44.2913V0.708661C4.0177 0.317126 4.33483 0 4.72636 0H36.8858C37.2773 0 37.5944 0.317126 37.5944 0.708661V44.2913C37.5944 44.6825 37.2773 45 36.8858 45Z" fill="black"/>
<path fill-rule="evenodd" clip-rule="evenodd" d="M12.5 40.6616H33.3202V4.33879H12.5V40.6616ZM33.6745 41.3702H12.1457C11.9501 41.3702 11.7914 41.2119 11.7914 41.0159V3.98446C11.7914 3.78851 11.9501 3.63013 12.1457 3.63013H33.6745C33.8701 3.63013 34.0288 3.78851 34.0288 3.98446V41.0159C34.0288 41.2119 33.8701 41.3702 33.6745 41.3702Z" fill="black"/>
<path fill-rule="evenodd" clip-rule="evenodd" d="M14.2459 40.6615H33.0301L29.6377 35.3153L14.2459 40.6615ZM33.6746 41.3701H12.1458C11.9725 41.3701 11.8251 41.2451 11.7964 41.0746C11.7674 40.9045 11.8662 40.738 12.0296 40.6813L29.6703 34.5542C29.8255 34.4986 29.9973 34.5599 30.0856 34.6988L33.9736 40.8259C34.0427 40.935 34.0473 41.0732 33.985 41.1862C33.9226 41.3 33.8036 41.3701 33.6746 41.3701Z" fill="black"/>
<path fill-rule="evenodd" clip-rule="evenodd" d="M15.2571 15.8013H21.0784V7.37358H15.2571V15.8013ZM21.4328 16.51H14.9028C14.7068 16.51 14.5485 16.3513 14.5485 16.1557V7.01925C14.5485 6.8233 14.7068 6.66492 14.9028 6.66492H21.4328C21.6283 6.66492 21.7871 6.8233 21.7871 7.01925V16.1557C21.7871 16.3513 21.6283 16.51 21.4328 16.51Z" fill="black"/>
<path fill-rule="evenodd" clip-rule="evenodd" d="M30.4203 8.90849H23.0361C22.8405 8.90849 22.6818 8.7501 22.6818 8.55416C22.6818 8.35821 22.8405 8.19983 23.0361 8.19983H30.4203C30.6159 8.19983 30.7747 8.35821 30.7747 8.55416C30.7747 8.7501 30.6159 8.90849 30.4203 8.90849Z" fill="black"/>
<path fill-rule="evenodd" clip-rule="evenodd" d="M30.4203 14.7244H23.0361C22.8405 14.7244 22.6818 14.566 22.6818 14.3701C22.6818 14.1741 22.8405 14.0157 23.0361 14.0157H30.4203C30.6159 14.0157 30.7747 14.1741 30.7747 14.3701C30.7747 14.566 30.6159 14.7244 30.4203 14.7244Z" fill="black"/>
<path fill-rule="evenodd" clip-rule="evenodd" d="M30.4204 20.5408H14.9028C14.7068 20.5408 14.5485 20.3824 14.5485 20.1865C14.5485 19.9905 14.7068 19.8322 14.9028 19.8322H30.4204C30.6159 19.8322 30.7747 19.9905 30.7747 20.1865C30.7747 20.3824 30.6159 20.5408 30.4204 20.5408Z" fill="black"/>
<path fill-rule="evenodd" clip-rule="evenodd" d="M30.4204 26.3571H14.9028C14.7068 26.3571 14.5485 26.1987 14.5485 26.0028C14.5485 25.8068 14.7068 25.6484 14.9028 25.6484H30.4204C30.6159 25.6484 30.7747 25.8068 30.7747 26.0028C30.7747 26.1987 30.6159 26.3571 30.4204 26.3571Z" fill="black"/>
<path fill-rule="evenodd" clip-rule="evenodd" d="M30.4204 32.1731H14.9028C14.7068 32.1731 14.5485 32.0148 14.5485 31.8188C14.5485 31.6229 14.7068 31.4645 14.9028 31.4645H30.4204C30.6159 31.4645 30.7747 31.6229 30.7747 31.8188C30.7747 32.0148 30.6159 32.1731 30.4204 32.1731Z" fill="black"/>
<path fill-rule="evenodd" clip-rule="evenodd" d="M8.32087 6.1893H0.708784C0.317248 6.1893 0.00012207 5.87182 0.00012207 5.48063C0.00012207 5.08945 0.317248 4.77197 0.708784 4.77197H8.32087C8.71205 4.77197 9.02953 5.08945 9.02953 5.48063C9.02953 5.87182 8.71205 6.1893 8.32087 6.1893Z" fill="black"/>
<path fill-rule="evenodd" clip-rule="evenodd" d="M8.32087 10.1634H0.708784C0.317248 10.1634 0.00012207 9.84594 0.00012207 9.45476C0.00012207 9.06357 0.317248 8.74609 0.708784 8.74609H8.32087C8.71205 8.74609 9.02953 9.06357 9.02953 9.45476C9.02953 9.84594 8.71205 10.1634 8.32087 10.1634Z" fill="black"/>
<path fill-rule="evenodd" clip-rule="evenodd" d="M8.32087 14.1375H0.708784C0.317248 14.1375 0.00012207 13.8201 0.00012207 13.4289C0.00012207 13.0377 0.317248 12.7202 0.708784 12.7202H8.32087C8.71205 12.7202 9.02953 13.0377 9.02953 13.4289C9.02953 13.8201 8.71205 14.1375 8.32087 14.1375Z" fill="black"/>
<path fill-rule="evenodd" clip-rule="evenodd" d="M8.32087 32.2288H0.708784C0.317248 32.2288 0.00012207 31.9114 0.00012207 31.5202C0.00012207 31.129 0.317248 30.8115 0.708784 30.8115H8.32087C8.71205 30.8115 9.02953 31.129 9.02953 31.5202C9.02953 31.9114 8.71205 32.2288 8.32087 32.2288Z" fill="black"/>
<path fill-rule="evenodd" clip-rule="evenodd" d="M8.32087 36.2026H0.708784C0.317248 36.2026 0.00012207 35.8851 0.00012207 35.4939C0.00012207 35.1028 0.317248 34.7853 0.708784 34.7853H8.32087C8.71205 34.7853 9.02953 35.1028 9.02953 35.4939C9.02953 35.8851 8.71205 36.2026 8.32087 36.2026Z" fill="black"/>
<path fill-rule="evenodd" clip-rule="evenodd" d="M8.32087 40.1767H0.708784C0.317248 40.1767 0.00012207 39.8592 0.00012207 39.4681C0.00012207 39.0769 0.317248 38.7594 0.708784 38.7594H8.32087C8.71205 38.7594 9.02953 39.0769 9.02953 39.4681C9.02953 39.8592 8.71205 40.1767 8.32087 40.1767Z" fill="black"/>
<path fill-rule="evenodd" clip-rule="evenodd" d="M5.08073 43.937H11.7914V1.06303H5.08073V43.937ZM12.1457 44.6457H4.7264C4.53081 44.6457 4.37207 44.4873 4.37207 44.2914V0.708701C4.37207 0.512756 4.53081 0.35437 4.7264 0.35437H12.1457C12.3413 0.35437 12.5001 0.512756 12.5001 0.708701V44.2914C12.5001 44.4873 12.3413 44.6457 12.1457 44.6457Z" fill="black"/>
</svg>
