<?xml version="1.0" encoding="UTF-8"?>
<svg width="30" height="30" viewBox="0 0 30 30" fill="none" xmlns="http://www.w3.org/2000/svg">
<mask id="mask055" mask-type="alpha" maskUnits="userSpaceOnUse" x="0" y="0" width="30" height="30">
<path fill-rule="evenodd" clip-rule="evenodd" d="M0 0H30V30H0V0Z" fill="white"/>
</mask>
<g mask="url(#mask055)">
<path fill-rule="evenodd" clip-rule="evenodd" d="M0.708647 29.2913H29.2913V8.36197H0.708647V29.2913ZM29.5275 29.7638H0.472427C0.342033 29.7638 0.236206 29.658 0.236206 29.5276V8.12575C0.236206 7.99535 0.342033 7.88953 0.472427 7.88953H29.5275C29.6582 7.88953 29.7638 7.99535 29.7638 8.12575V29.5276C29.7638 29.658 29.6582 29.7638 29.5275 29.7638Z" fill="#787878"/>
<path fill-rule="evenodd" clip-rule="evenodd" d="M0.944882 29.0551H29.0551V2.99481H0.944882V29.0551ZM29.5276 30H0.472441C0.211654 30 0 29.7884 0 29.5276V2.52237C0 2.26158 0.211654 2.04993 0.472441 2.04993H29.5276C29.7883 2.04993 30 2.26158 30 2.52237V29.5276C30 29.7884 29.7883 30 29.5276 30Z" fill="#787878"/>
<path fill-rule="evenodd" clip-rule="evenodd" d="M4.56216 5.04496C4.30138 5.04496 4.08972 4.83331 4.08972 4.57252V0.472441C4.08972 0.211654 4.30138 0 4.56216 0C4.82295 0 5.0346 0.211654 5.0346 0.472441V4.57252C5.0346 4.83331 4.82295 5.04496 4.56216 5.04496Z" fill="#787878"/>
<path fill-rule="evenodd" clip-rule="evenodd" d="M9.06473 5.04496C8.80394 5.04496 8.59229 4.83331 8.59229 4.57252V0.472441C8.59229 0.211654 8.80394 0 9.06473 0C9.32551 0 9.53717 0.211654 9.53717 0.472441V4.57252C9.53717 4.83331 9.32551 5.04496 9.06473 5.04496Z" fill="#787878"/>
<path fill-rule="evenodd" clip-rule="evenodd" d="M20.9353 5.04496C20.6745 5.04496 20.4629 4.83331 20.4629 4.57252V0.472441C20.4629 0.211654 20.6745 0 20.9353 0C21.1961 0 21.4078 0.211654 21.4078 0.472441V4.57252C21.4078 4.83331 21.1961 5.04496 20.9353 5.04496Z" fill="#787878"/>
<path fill-rule="evenodd" clip-rule="evenodd" d="M25.4378 5.04496C25.177 5.04496 24.9653 4.83331 24.9653 4.57252V0.472441C24.9653 0.211654 25.177 0 25.4378 0C25.6986 0 25.9102 0.211654 25.9102 0.472441V4.57252C25.9102 4.83331 25.6986 5.04496 25.4378 5.04496Z" fill="#787878"/>
<path fill-rule="evenodd" clip-rule="evenodd" d="M6.83909 12.9173H4.95924C4.82861 12.9173 4.72302 12.8114 4.72302 12.681C4.72302 12.5507 4.82861 12.4448 4.95924 12.4448H6.83909C6.96948 12.4448 7.07531 12.5507 7.07531 12.681C7.07531 12.8114 6.96948 12.9173 6.83909 12.9173Z" fill="#787878"/>
<path fill-rule="evenodd" clip-rule="evenodd" d="M12.9063 12.9173H11.0265C10.8959 12.9173 10.7903 12.8114 10.7903 12.681C10.7903 12.5507 10.8959 12.4448 11.0265 12.4448H12.9063C13.0367 12.4448 13.1426 12.5507 13.1426 12.681C13.1426 12.8114 13.0367 12.9173 12.9063 12.9173Z" fill="#787878"/>
<path fill-rule="evenodd" clip-rule="evenodd" d="M18.9735 12.9173H17.0936C16.963 12.9173 16.8574 12.8114 16.8574 12.681C16.8574 12.5507 16.963 12.4448 17.0936 12.4448H18.9735C19.1041 12.4448 19.2097 12.5507 19.2097 12.681C19.2097 12.8114 19.1041 12.9173 18.9735 12.9173Z" fill="#787878"/>
<path fill-rule="evenodd" clip-rule="evenodd" d="M25.041 12.9173H23.1609C23.0303 12.9173 22.9247 12.8114 22.9247 12.681C22.9247 12.5507 23.0303 12.4448 23.1609 12.4448H25.041C25.1716 12.4448 25.2772 12.5507 25.2772 12.681C25.2772 12.8114 25.1716 12.9173 25.041 12.9173Z" fill="#787878"/>
<path fill-rule="evenodd" clip-rule="evenodd" d="M6.83909 19.0629H4.95924C4.82861 19.0629 4.72302 18.9571 4.72302 18.8267C4.72302 18.6963 4.82861 18.5905 4.95924 18.5905H6.83909C6.96948 18.5905 7.07531 18.6963 7.07531 18.8267C7.07531 18.9571 6.96948 19.0629 6.83909 19.0629Z" fill="#787878"/>
<path fill-rule="evenodd" clip-rule="evenodd" d="M12.9063 19.0629H11.0265C10.8959 19.0629 10.7903 18.9571 10.7903 18.8267C10.7903 18.6963 10.8959 18.5905 11.0265 18.5905H12.9063C13.0367 18.5905 13.1426 18.6963 13.1426 18.8267C13.1426 18.9571 13.0367 19.0629 12.9063 19.0629Z" fill="#787878"/>
<path fill-rule="evenodd" clip-rule="evenodd" d="M18.9735 19.0629H17.0936C16.963 19.0629 16.8574 18.9571 16.8574 18.8267C16.8574 18.6963 16.963 18.5905 17.0936 18.5905H18.9735C19.1041 18.5905 19.2097 18.6963 19.2097 18.8267C19.2097 18.9571 19.1041 19.0629 18.9735 19.0629Z" fill="#787878"/>
<path fill-rule="evenodd" clip-rule="evenodd" d="M25.041 19.0629H23.1609C23.0303 19.0629 22.9247 18.9571 22.9247 18.8267C22.9247 18.6963 23.0303 18.5905 23.1609 18.5905H25.041C25.1716 18.5905 25.2772 18.6963 25.2772 18.8267C25.2772 18.9571 25.1716 19.0629 25.041 19.0629Z" fill="#787878"/>
<path fill-rule="evenodd" clip-rule="evenodd" d="M6.83909 25.2085H4.95924C4.82861 25.2085 4.72302 25.1027 4.72302 24.9723C4.72302 24.8419 4.82861 24.7361 4.95924 24.7361H6.83909C6.96948 24.7361 7.07531 24.8419 7.07531 24.9723C7.07531 25.1027 6.96948 25.2085 6.83909 25.2085Z" fill="#787878"/>
<path fill-rule="evenodd" clip-rule="evenodd" d="M12.9063 25.2085H11.0265C10.8959 25.2085 10.7903 25.1027 10.7903 24.9723C10.7903 24.8419 10.8959 24.7361 11.0265 24.7361H12.9063C13.0367 24.7361 13.1426 24.8419 13.1426 24.9723C13.1426 25.1027 13.0367 25.2085 12.9063 25.2085Z" fill="#787878"/>
<path fill-rule="evenodd" clip-rule="evenodd" d="M18.9735 25.2085H17.0936C16.963 25.2085 16.8574 25.1027 16.8574 24.9723C16.8574 24.8419 16.963 24.7361 17.0936 24.7361H18.9735C19.1041 24.7361 19.2097 24.8419 19.2097 24.9723C19.2097 25.1027 19.1041 25.2085 18.9735 25.2085Z" fill="#787878"/>
<path fill-rule="evenodd" clip-rule="evenodd" d="M25.041 25.2085H23.1609C23.0303 25.2085 22.9247 25.1027 22.9247 24.9723C22.9247 24.8419 23.0303 24.7361 23.1609 24.7361H25.041C25.1716 24.7361 25.2772 24.8419 25.2772 24.9723C25.2772 25.1027 25.1716 25.2085 25.041 25.2085Z" fill="#787878"/>
</g>
</svg>
