<?xml version="1.0" encoding="UTF-8"?>
<svg width="30" height="30" viewBox="0 0 30 30" fill="none" xmlns="http://www.w3.org/2000/svg">
<path fill-rule="evenodd" clip-rule="evenodd" d="M15 3.41862C8.61724 3.41862 3.4246 8.6115 3.4246 14.9941C3.4246 21.3769 8.61724 26.5697 15 26.5697C21.3828 26.5697 26.5755 21.3769 26.5755 14.9941C26.5755 8.6115 21.3828 3.41862 15 3.41862ZM15 27.5297C8.0878 27.5297 2.4646 21.9063 2.4646 14.9941C2.4646 8.08206 8.0878 2.45862 15 2.45862C21.9123 2.45862 27.5355 8.08206 27.5355 14.9941C27.5355 21.9063 21.9123 27.5297 15 27.5297Z" fill="#787878"/>
<path fill-rule="evenodd" clip-rule="evenodd" d="M15 10.7316C12.6496 10.7316 10.7373 12.6439 10.7373 14.9942C10.7373 17.3448 12.6496 19.2569 15 19.2569C17.3505 19.2569 19.2628 17.3448 19.2628 14.9942C19.2628 12.6439 17.3505 10.7316 15 10.7316ZM15 19.7369C12.3849 19.7369 10.2573 17.6093 10.2573 14.9942C10.2573 12.3789 12.3849 10.2516 15 10.2516C17.615 10.2516 19.7428 12.3789 19.7428 14.9942C19.7428 17.6093 17.615 19.7369 15 19.7369Z" fill="#787878"/>
<mask id="mask08989" mask-type="alpha" maskUnits="userSpaceOnUse" x="14" y="0" width="2" height="11">
<path fill-rule="evenodd" clip-rule="evenodd" d="M14.76 0H15.24V10.7433H14.76V0Z" fill="white"/>
</mask>
<g mask="url(#mask08989)">
<path fill-rule="evenodd" clip-rule="evenodd" d="M15 10.7432C14.8673 10.7432 14.76 10.636 14.76 10.5032V0.239878C14.76 0.107398 14.8673 -0.00012207 15 -0.00012207C15.1327 -0.00012207 15.24 0.107398 15.24 0.239878V10.5032C15.24 10.636 15.1327 10.7432 15 10.7432Z" fill="#787878"/>
</g>
<path fill-rule="evenodd" clip-rule="evenodd" d="M15 30C14.8673 30 14.76 29.8927 14.76 29.76V19.4968C14.76 19.3644 14.8673 19.2568 15 19.2568C15.1327 19.2568 15.24 19.3644 15.24 19.4968V29.76C15.24 29.8927 15.1327 30 15 30Z" fill="#787878"/>
<path fill-rule="evenodd" clip-rule="evenodd" d="M29.76 15.24H19.4968C19.3644 15.24 19.2568 15.1327 19.2568 15C19.2568 14.8673 19.3644 14.76 19.4968 14.76H29.76C29.8927 14.76 30 14.8673 30 15C30 15.1327 29.8927 15.24 29.76 15.24Z" fill="#787878"/>
<mask id="mask1" mask-type="alpha" maskUnits="userSpaceOnUse" x="0" y="14" width="11" height="2">
<path fill-rule="evenodd" clip-rule="evenodd" d="M0 14.76H10.7433V15.24H0V14.76Z" fill="white"/>
</mask>
<g mask="url(#mask1)">
<path fill-rule="evenodd" clip-rule="evenodd" d="M10.5032 15.24H0.239878C0.107398 15.24 -0.00012207 15.1327 -0.00012207 15C-0.00012207 14.8673 0.107398 14.76 0.239878 14.76H10.5032C10.636 14.76 10.7432 14.8673 10.7432 15C10.7432 15.1327 10.636 15.24 10.5032 15.24Z" fill="#787878"/>
</g>
</svg>
