<?xml version="1.0" encoding="UTF-8"?>
<svg viewBox="0 0 95 57" fill="none" xmlns="http://www.w3.org/2000/svg">
<path fill-rule="evenodd" clip-rule="evenodd" d="M9.0053 49.4956L7.36485 44.7156H7.32829L5.63317 49.4956H9.0053ZM8.84129 41.5046L13.7083 54.5311H10.737L9.75275 51.6301H4.88589L3.86509 54.5311H0.984985L5.90651 41.5046H8.84129Z" fill="#FEFEFE"/>
<path fill-rule="evenodd" clip-rule="evenodd" d="M24.3899 41.5045V43.9128H17.518V46.7042H23.8247V48.9298H17.518V52.1227H24.5358V54.531H14.656V41.5045H24.3899Z" fill="#FEFEFE"/>
<path fill-rule="evenodd" clip-rule="evenodd" d="M32.2826 47.3975C32.9389 47.3975 33.4311 47.2514 33.7591 46.9597C34.0873 46.6678 34.2513 46.1933 34.2513 45.5365C34.2513 44.9042 34.0873 44.4451 33.7591 44.1591C33.4311 43.8736 32.9389 43.7305 32.2826 43.7305H29.1475V47.3975H32.2826ZM33.3034 41.5046C33.8867 41.5046 34.4122 41.599 34.8802 41.7874C35.3478 41.9761 35.7489 42.2344 36.0833 42.5627C36.4173 42.8912 36.6725 43.2715 36.8488 43.7029C37.025 44.1349 37.1131 44.6001 37.1131 45.0986C37.1131 45.865 36.9518 46.528 36.6301 47.0873C36.3079 47.6469 35.7824 48.0727 35.0534 48.3644V48.4009C35.4055 48.4983 35.6973 48.6471 35.9283 48.848C36.1589 49.0486 36.3476 49.2858 36.4935 49.5595C36.6392 49.8329 36.7455 50.1341 36.8124 50.4626C36.8791 50.7909 36.9247 51.1194 36.9489 51.4477C36.9611 51.6546 36.9734 51.8979 36.9855 52.1777C36.9974 52.4574 37.019 52.7431 37.0494 53.0348C37.0796 53.3269 37.1283 53.6038 37.1951 53.865C37.2617 54.1268 37.362 54.3484 37.496 54.5311H34.6342C34.4759 54.1176 34.3789 53.625 34.3423 53.0531C34.306 52.4817 34.2513 51.9343 34.1783 51.4111C34.0811 50.7304 33.8744 50.2317 33.5585 49.9152C33.2424 49.599 32.7262 49.4409 32.0091 49.4409H29.1475V54.5311H26.2856V41.5046H33.3034Z" fill="#FEFEFE"/>
<mask id="mask0" mask-type="alpha" maskUnits="userSpaceOnUse" x="38" y="41" width="14" height="14">
<path fill-rule="evenodd" clip-rule="evenodd" d="M38.6987 41.1944H51.4949V54.8229H38.6987V41.1944Z" fill="white"/>
</mask>
<g mask="url(#mask0)">
<path fill-rule="evenodd" clip-rule="evenodd" d="M41.7519 49.6688C41.8795 50.1859 42.0828 50.6512 42.3625 51.0646C42.642 51.4781 43.0064 51.8097 43.4563 52.0588C43.9056 52.3083 44.4524 52.433 45.0969 52.433C45.7408 52.433 46.2877 52.3083 46.7373 52.0588C47.1866 51.8097 47.5514 51.4781 47.8311 51.0646C48.1104 50.6512 48.3141 50.1859 48.4417 49.6688C48.5693 49.1521 48.633 48.6199 48.633 48.0726C48.633 47.5009 48.5693 46.9476 48.4417 46.4122C48.3141 45.8771 48.1104 45.3997 47.8311 44.9801C47.5514 44.5605 47.1866 44.226 46.7373 43.9767C46.2877 43.7276 45.7408 43.6027 45.0969 43.6027C44.4524 43.6027 43.9056 43.7276 43.4563 43.9767C43.0064 44.226 42.642 44.5605 42.3625 44.9801C42.0828 45.3997 41.8795 45.8771 41.7519 46.4122C41.6243 46.9476 41.5604 47.5009 41.5604 48.0726C41.5604 48.6199 41.6243 49.1521 41.7519 49.6688ZM39.1361 45.3631C39.4277 44.5304 39.847 43.8033 40.3938 43.1831C40.9407 42.5627 41.6121 42.0764 42.4081 41.7235C43.2039 41.3709 44.1002 41.1944 45.0969 41.1944C46.1052 41.1944 47.0045 41.3709 47.7943 41.7235C48.5843 42.0764 49.2527 42.5627 49.7997 43.1831C50.3464 43.8033 50.7657 44.5304 51.0573 45.3631C51.3489 46.1964 51.4949 47.0994 51.4949 48.0726C51.4949 49.0212 51.3489 49.9061 51.0573 50.7271C50.7657 51.548 50.3464 52.2626 49.7997 52.8707C49.2527 53.4791 48.5843 53.9562 47.7943 54.303C47.0045 54.6496 46.1052 54.823 45.0969 54.823C44.1002 54.823 43.2039 54.6496 42.4081 54.303C41.6121 53.9562 40.9407 53.4791 40.3938 52.8707C39.847 52.2626 39.4277 51.548 39.1361 50.7271C38.8445 49.9061 38.6987 49.0212 38.6987 48.0726C38.6987 47.0994 38.8445 46.1964 39.1361 45.3631Z" fill="#FEFEFE"/>
</g>
<mask id="mask1" mask-type="alpha" maskUnits="userSpaceOnUse" x="52" y="41" width="13" height="14">
<path fill-rule="evenodd" clip-rule="evenodd" d="M52.6982 41.1943H64.8199V54.8229H52.6982V41.1943Z" fill="white"/>
</mask>
<g mask="url(#mask1)">
<path fill-rule="evenodd" clip-rule="evenodd" d="M61.6117 44.9801C61.4414 44.7064 61.2289 44.4665 60.9738 44.2594C60.7184 44.0528 60.4296 43.8918 60.1078 43.776C59.7857 43.6606 59.4487 43.6026 59.0962 43.6026C58.4519 43.6026 57.9049 43.7276 57.4556 43.9767C57.0059 44.226 56.6413 44.5605 56.362 44.9801C56.0823 45.3996 55.8789 45.8772 55.7514 46.4122C55.6238 46.9476 55.5599 47.501 55.5599 48.0726C55.5599 48.6199 55.6238 49.1521 55.7514 49.6688C55.8789 50.1859 56.0823 50.6512 56.362 51.0647C56.6413 51.4781 57.0059 51.8097 57.4556 52.0588C57.9049 52.3083 58.4519 52.433 59.0962 52.433C59.9711 52.433 60.6547 52.1654 61.147 51.6301C61.6391 51.0951 61.9398 50.3894 62.0491 49.5137H64.8199C64.7469 50.3289 64.5583 51.0647 64.2549 51.7215C63.9509 52.3781 63.55 52.9378 63.0518 53.4C62.5532 53.8622 61.97 54.2149 61.3018 54.4581C60.6335 54.7012 59.8982 54.823 59.0962 54.823C58.0997 54.823 57.2032 54.6496 56.4076 54.303C55.6115 53.9562 54.9402 53.4791 54.3934 52.8707C53.8465 52.2627 53.4272 51.5481 53.1356 50.7271C52.8438 49.906 52.6982 49.0213 52.6982 48.0726C52.6982 47.0994 52.8438 46.1964 53.1356 45.3632C53.4272 44.5304 53.8465 43.8033 54.3934 43.1831C54.9402 42.5628 55.6115 42.0765 56.4076 41.7235C57.2032 41.3709 58.0997 41.1943 59.0962 41.1943C59.8129 41.1943 60.4906 41.2979 61.1286 41.5045C61.7665 41.7116 62.3376 42.0125 62.8422 42.4077C63.3461 42.803 63.7627 43.2926 64.0907 43.8764C64.4189 44.4601 64.6253 45.1291 64.7103 45.8832H61.9398C61.8911 45.5548 61.7815 45.2539 61.6117 44.9801Z" fill="#FEFEFE"/>
</g>
<path fill-rule="evenodd" clip-rule="evenodd" d="M66.5879 54.5311H69.4499V41.5046H66.5879V54.5311Z" fill="#FEFEFE"/>
<path fill-rule="evenodd" clip-rule="evenodd" d="M70.762 43.9128V41.5045H81.4254V43.9128H77.5245V54.531H74.6629V43.9128H70.762Z" fill="#FEFEFE"/>
<path fill-rule="evenodd" clip-rule="evenodd" d="M81.3342 41.5045H84.5424L87.5865 46.6494L90.6123 41.5045H93.8023L88.9717 49.5321V54.531H86.11V49.4591L81.3342 41.5045Z" fill="#FEFEFE"/>
<path fill-rule="evenodd" clip-rule="evenodd" d="M56.8215 17.7699C56.3358 20.9738 54.1311 23.6448 51.2195 24.9007V7.83679C54.1208 9.08844 56.3203 11.745 56.8159 14.934H59.3177C58.6572 9.5149 54.1812 5.21904 48.7402 4.64656V5.12677V7.14732V25.5902V27.9316V28.0911C54.1924 27.5175 58.6752 23.2049 59.3216 17.7699H56.8215Z" fill="#FEFEFE"/>
<path fill-rule="evenodd" clip-rule="evenodd" d="M63.6465 17.7843V19.1595C63.723 18.7073 63.7808 18.2485 63.8198 17.7843H63.6465Z" fill="#FEFEFE"/>
<path fill-rule="evenodd" clip-rule="evenodd" d="M31.3437 17.7843H31.2527C31.2761 18.0643 31.3064 18.3425 31.3437 18.6184V17.7843Z" fill="#FEFEFE"/>
<path fill-rule="evenodd" clip-rule="evenodd" d="M29.7746 12.1419H11.3933L14.2696 15.0208H29.3303C29.4032 14.0434 29.5515 13.0813 29.7746 12.1419Z" fill="#FEFEFE"/>
<path fill-rule="evenodd" clip-rule="evenodd" d="M32.7759 23.4267C33.0276 23.9556 33.3064 24.4692 33.6114 24.9653V23.4267H32.7759Z" fill="#FEFEFE"/>
<path fill-rule="evenodd" clip-rule="evenodd" d="M61.3787 23.4267V25.0993C61.7164 24.5621 62.0233 24.0038 62.298 23.4267H61.3787Z" fill="#FEFEFE"/>
<path fill-rule="evenodd" clip-rule="evenodd" d="M65.2988 20.6632H75.5935L78.4699 17.7843H65.7433C65.6704 18.7616 65.522 19.7237 65.2988 20.6632Z" fill="#FEFEFE"/>
<path fill-rule="evenodd" clip-rule="evenodd" d="M65.3 12.1419C65.5232 13.0819 65.672 14.0439 65.7442 15.0208H80.7206L83.5971 12.1419H65.3Z" fill="#FEFEFE"/>
<path fill-rule="evenodd" clip-rule="evenodd" d="M29.3292 17.7843H16.5203L19.3966 20.6632H29.7733C29.5502 19.7232 29.4016 18.7612 29.3292 17.7843Z" fill="#FEFEFE"/>
<path fill-rule="evenodd" clip-rule="evenodd" d="M62.8896 26.3056H70.4178L73.2943 23.4267H64.4015C63.9856 24.4274 63.4809 25.3907 62.8896 26.3056Z" fill="#FEFEFE"/>
<path fill-rule="evenodd" clip-rule="evenodd" d="M30.6705 23.4267H21.696L24.5724 26.3056H32.1838C31.5914 25.3897 31.0864 24.4264 30.6705 23.4267Z" fill="#FEFEFE"/>
<path fill-rule="evenodd" clip-rule="evenodd" d="M57.32 26.3483C54.6947 28.9351 51.2219 30.3599 47.5417 30.3599C47.4712 30.3599 47.401 30.3593 47.3302 30.3582C43.6057 30.303 40.1257 28.7994 37.5311 26.1246C34.9366 23.4496 33.5381 19.9236 33.5934 16.1958C33.6479 12.5051 35.1252 9.04626 37.7534 6.45688C40.3788 3.87004 43.8515 2.44543 47.5318 2.44527C47.6023 2.44527 47.6725 2.44575 47.7431 2.44686C51.4677 2.50203 54.9475 4.00559 57.5422 6.68058C60.1367 9.3554 61.5352 12.8816 61.4801 16.6092C61.4255 20.3001 59.9481 23.7589 57.32 26.3483ZM88.9903 6.49953H60.5437C57.6086 2.64312 52.9975 0.125405 47.7788 0.0480391C47.6961 0.0469293 47.614 0.0462952 47.5318 0.0462952C42.2393 0.0464537 37.5186 2.57305 34.5295 6.49953H6L8.8814 9.37839H32.7754C31.7964 11.4362 31.2326 13.7323 31.1967 16.1603C31.063 25.1926 38.2702 32.6232 47.2947 32.757C47.3772 32.7583 47.4593 32.7589 47.5417 32.7589C56.4537 32.7589 63.7444 25.5945 63.8768 16.6448C63.9153 14.0444 63.3441 11.5775 62.2976 9.37839H86.1089L88.9903 6.49953Z" fill="#FEFEFE"/>
<path fill-rule="evenodd" clip-rule="evenodd" d="M43.8411 7.84606V14.9425H38.4409C38.9235 11.7576 40.997 9.10231 43.8411 7.84606ZM35.8525 16.3688C35.8525 20.4125 37.8989 23.9846 41.0079 26.1087V22.8913C39.6705 21.5325 38.7503 19.7645 38.4457 17.7952H43.8411V24.8624V27.2226V27.5279C44.6553 27.8055 45.4378 28.0021 46.3204 28.095V27.9317V25.5942V7.14739V5.12684V4.64664C40.4066 5.26858 35.8525 10.288 35.8525 16.3688Z" fill="#FEFEFE"/>
</svg>
