<?xml version="1.0" encoding="UTF-8"?>
<svg width="44" height="61" viewBox="0 0 44 61" fill="none" xmlns="http://www.w3.org/2000/svg">
<mask id="mask0445" mask-type="alpha" maskUnits="userSpaceOnUse" x="0" y="0" width="44" height="56">
<path fill-rule="evenodd" clip-rule="evenodd" d="M0.000244141 0H43.4255V55.1925H0.000244141V0Z" fill="white"/>
</mask>
<g mask="url(#mask0445)">
<path fill-rule="evenodd" clip-rule="evenodd" d="M7.56118 1.875C4.42618 1.875 1.87524 4.95141 1.87524 8.73328V50.4347C3.24821 49.2455 5.25915 48.51 7.4829 48.51H41.5507V1.875H7.56118ZM0.937744 55.1925C0.419775 55.1925 0.000244141 54.773 0.000244141 54.255V8.73328C0.000244141 3.91781 3.39165 0 7.56118 0H42.4882C43.0057 0 43.4257 0.42 43.4257 0.9375V49.4475C43.4257 49.965 43.0057 50.385 42.4882 50.385H7.4829C4.72009 50.385 2.33696 51.8152 1.93946 53.7117C1.92306 53.782 1.91415 53.8219 1.90712 53.8636L1.89821 53.9297C1.88462 54.0356 1.87524 54.1406 1.87524 54.255C1.87524 54.773 1.45524 55.1925 0.937744 55.1925Z" fill="#787878"/>
</g>
<path fill-rule="evenodd" clip-rule="evenodd" d="M7.28577 49.7808C7.02702 49.7808 6.81702 49.5708 6.81702 49.312V0.9375C6.81702 0.67875 7.02702 0.46875 7.28577 0.46875C7.54452 0.46875 7.75452 0.67875 7.75452 0.9375V49.312C7.75452 49.5708 7.54452 49.7808 7.28577 49.7808Z" fill="#787878"/>
<mask id="mask13332" mask-type="alpha" maskUnits="userSpaceOnUse" x="0" y="48" width="44" height="12">
<path fill-rule="evenodd" clip-rule="evenodd" d="M0.00012207 48.51H43.4255V60H0.00012207V48.51Z" fill="white"/>
</mask>
<g mask="url(#mask13332)">
<path fill-rule="evenodd" clip-rule="evenodd" d="M6.62684 50.385C3.78481 50.385 1.87512 51.9403 1.87512 54.255C1.87512 56.5697 3.78481 58.125 6.62684 58.125H40.5582C39.0545 55.6828 39.0545 52.8272 40.5582 50.385H6.62684ZM42.4881 60H6.62684C2.72497 60 0.00012207 57.6375 0.00012207 54.255C0.00012207 50.8725 2.72497 48.51 6.62684 48.51H42.4881C42.8668 48.51 43.2076 48.7374 43.3534 49.0866C43.4987 49.4363 43.4204 49.8384 43.1542 50.1075C40.6581 52.627 40.6581 55.883 43.1542 58.4025C43.4204 58.6716 43.4987 59.0742 43.3534 59.4234C43.2076 59.7727 42.8668 60 42.4881 60Z" fill="#787878"/>
</g>
<path fill-rule="evenodd" clip-rule="evenodd" d="M15.4058 11.7646C14.5269 11.7646 13.812 12.4795 13.812 13.3584V29.7886C13.812 30.6675 14.5269 31.3828 15.4058 31.3828H33.7128C34.5917 31.3828 35.3065 30.6675 35.3065 29.7886V13.3584C35.3065 12.4795 34.5917 11.7646 33.7128 11.7646H15.4058ZM33.7128 32.3203H15.4058C14.0098 32.3203 12.8745 31.1845 12.8745 29.7886V13.3584C12.8745 11.9625 14.0098 10.8271 15.4058 10.8271H33.7128C35.1083 10.8271 36.244 11.9625 36.244 13.3584V29.7886C36.244 31.1845 35.1083 32.3203 33.7128 32.3203Z" fill="#787878"/>
<path fill-rule="evenodd" clip-rule="evenodd" d="M30.6828 16.1892H18.4358C18.1766 16.1892 17.967 15.9792 17.967 15.7205C17.967 15.4617 18.1766 15.2517 18.4358 15.2517H30.6828C30.942 15.2517 31.1516 15.4617 31.1516 15.7205C31.1516 15.9792 30.942 16.1892 30.6828 16.1892Z" fill="#787878"/>
<path fill-rule="evenodd" clip-rule="evenodd" d="M30.6828 22.0422H18.4358C18.1766 22.0422 17.967 21.8322 17.967 21.5735C17.967 21.3147 18.1766 21.1047 18.4358 21.1047H30.6828C30.942 21.1047 31.1516 21.3147 31.1516 21.5735C31.1516 21.8322 30.942 22.0422 30.6828 22.0422Z" fill="#787878"/>
<path fill-rule="evenodd" clip-rule="evenodd" d="M30.6828 27.8953H18.4358C18.1766 27.8953 17.967 27.6853 17.967 27.4265C17.967 27.1678 18.1766 26.9578 18.4358 26.9578H30.6828C30.942 26.9578 31.1516 27.1678 31.1516 27.4265C31.1516 27.6853 30.942 27.8953 30.6828 27.8953Z" fill="#787878"/>
<path fill-rule="evenodd" clip-rule="evenodd" d="M40.5137 53.2795H18.4355C18.1768 53.2795 17.9668 53.0695 17.9668 52.8108C17.9668 52.552 18.1768 52.342 18.4355 52.342H40.5137C40.7729 52.342 40.9824 52.552 40.9824 52.8108C40.9824 53.0695 40.7729 53.2795 40.5137 53.2795Z" fill="#787878"/>
<path fill-rule="evenodd" clip-rule="evenodd" d="M40.5136 56.1677H5.48816C5.22941 56.1677 5.01941 55.9577 5.01941 55.699C5.01941 55.4402 5.22941 55.2302 5.48816 55.2302H40.5136C40.7728 55.2302 40.9824 55.4402 40.9824 55.699C40.9824 55.9577 40.7728 56.1677 40.5136 56.1677Z" fill="#787878"/>
</svg>
