<?xml version="1.0" encoding="UTF-8"?>
<svg width="30" height="30" viewBox="0 0 30 30" fill="none" xmlns="http://www.w3.org/2000/svg">
<mask id="mask0" mask-type="alpha" maskUnits="userSpaceOnUse" x="0" y="0" width="30" height="30">
<path fill-rule="evenodd" clip-rule="evenodd" d="M0 0H30V30H0V0Z" fill="white"/>
</mask>
<g mask="url(#mask0)">
<path fill-rule="evenodd" clip-rule="evenodd" d="M22.0312 16.0416L22.0345 16.0453L17.347 20.2641L17.3438 20.2603C17.0944 20.4848 16.7677 20.625 16.4062 20.625C15.63 20.625 15 19.9955 15 19.2188C15 18.8039 15.1833 18.4345 15.4692 18.1772L15.4655 18.1734L17.4295 16.4062H8.90625C8.12953 16.4062 7.5 15.7767 7.5 15C7.5 14.2233 8.12953 13.5938 8.90625 13.5938H17.4295L15.4655 11.8266L15.4692 11.8228C15.1833 11.5655 15 11.1966 15 10.7812C15 10.005 15.63 9.375 16.4062 9.375C16.7677 9.375 17.0944 9.51562 17.3438 9.73969L17.347 9.73594L22.0345 13.9547L22.0312 13.9584C22.3167 14.2158 22.5 14.5852 22.5 15C22.5 15.4153 22.3167 15.7842 22.0312 16.0416ZM15 2.8125C8.26922 2.8125 2.8125 8.26875 2.8125 15C2.8125 21.7308 8.26922 27.1875 15 27.1875C21.7308 27.1875 27.1875 21.7308 27.1875 15C27.1875 8.26875 21.7308 2.8125 15 2.8125ZM15 30C6.71578 30 0 23.2842 0 15C0 6.71578 6.71578 0 15 0C23.2842 0 30 6.71578 30 15C30 23.2842 23.2842 30 15 30Z" fill="black"/>
</g>
</svg>
