<?xml version="1.0" encoding="UTF-8"?>
<svg width="24" height="24" viewBox="0 0 24 24" fill="none" xmlns="http://www.w3.org/2000/svg">
<path fill-rule="evenodd" clip-rule="evenodd" d="M9.44409 8.48309C14.1313 5.76541 18.7391 3.09404 23.3469 0.422424C23.4156 0.472466 23.4846 0.522507 23.5533 0.572798C20.8658 5.21172 18.1784 9.85064 15.4501 14.5605C14.5797 13.8129 13.7315 13.2838 13.9214 11.9235C14.0653 10.8945 13.1121 10.0889 12.0522 9.98732C10.4636 9.83521 10.4636 9.83521 9.44409 8.48309Z"/>
<path fill-rule="evenodd" clip-rule="evenodd" d="M14.3485 15.6755C9.60499 18.4258 4.97753 21.1089 0.349808 23.792C0.287567 23.7347 0.225327 23.6777 0.163086 23.6207C2.84118 18.9982 5.51927 14.376 8.24018 9.67978C9.07993 10.3662 9.97595 10.8248 9.76483 12.2087C9.60176 13.2773 10.632 14.3302 11.6963 14.1708C13.0143 13.9734 13.5142 14.8278 14.3485 15.6755Z"/>
</svg>
