<svg width="21" height="45" viewBox="0 0 21 45" fill="none" xmlns="http://www.w3.org/2000/svg">
<mask id="mask0" mask-type="alpha" maskUnits="userSpaceOnUse" x="0" y="0" width="21" height="33">
<path fill-rule="evenodd" clip-rule="evenodd" d="M0 0.0640869H20.3484V32.5892H0V0.0640869Z" fill="white"/>
</mask>
<g mask="url(#mask0)">
<path fill-rule="evenodd" clip-rule="evenodd" d="M1.43009 16.3241H1.43118C1.43118 18.3747 1.41092 20.4256 1.43643 22.4758C1.46605 24.8556 2.31528 26.9184 3.99906 28.6041C5.62086 30.2278 7.5997 31.097 9.89778 31.1685C12.4556 31.2481 14.6564 30.3506 16.4384 28.5332C18.1543 26.7832 18.9448 24.6353 18.9371 22.1811C18.925 18.2722 18.9331 14.3632 18.9346 10.4542C18.9353 8.99017 18.6514 7.59312 17.9644 6.2905C16.7082 3.90812 14.7743 2.3678 12.1562 1.75082C9.5824 1.14434 7.18009 1.63287 5.05419 3.19614C2.63297 4.97652 1.44041 7.41909 1.43124 10.4286C1.42522 12.3938 1.43009 14.3589 1.43009 16.3241ZM0.044063 16.072C0.044063 13.9467 -0.0695908 11.814 0.0681656 9.69767C0.339319 5.5321 2.48124 2.578 6.2881 0.893188C8.65983 -0.156428 11.1254 -0.190338 13.5595 0.683059C16.4457 1.7187 18.4719 3.69626 19.6346 6.5405C20.1375 7.77094 20.3462 9.05908 20.3455 10.3856C20.3432 14.3268 20.3341 18.2681 20.3483 22.2092C20.3578 24.8393 19.5451 27.1637 17.8051 29.1361C16.0509 31.1247 13.84 32.2804 11.1948 32.5357C8.17035 32.8275 5.52143 31.9249 3.28252 29.8768C1.66817 28.4002 0.636691 26.5725 0.228101 24.4182C0.105537 23.7718 0.0367553 23.1065 0.0291912 22.4488C0.00463993 20.3234 0.0200245 18.1977 0.0200245 16.072C0.0280374 16.072 0.0360502 16.072 0.044063 16.072Z" fill="white"/>
</g>
<path fill-rule="evenodd" clip-rule="evenodd" d="M10.1831 43.3753C11.1908 42.5609 12.1707 41.7708 13.1487 40.9783C14.2095 40.1185 15.2653 39.2527 16.3299 38.3977C16.6972 38.1028 17.1453 38.1422 17.3828 38.4633C17.64 38.8111 17.5595 39.2295 17.1884 39.5297C15.0235 41.2812 12.8597 43.0341 10.6968 44.7879C10.3628 45.0587 10.0143 45.0685 9.6803 44.7964C7.99254 43.422 6.3076 42.0441 4.6185 40.6713C4.13895 40.2816 3.64812 39.9058 3.16363 39.5221C2.79889 39.2333 2.7269 38.7856 2.98882 38.4522C3.22978 38.1455 3.666 38.1057 4.01844 38.3888C5.24132 39.3708 6.456 40.3631 7.67491 41.3501C8.50369 42.0212 9.33421 42.6901 10.1831 43.3753Z" fill="white"/>
<path fill-rule="evenodd" clip-rule="evenodd" d="M8.78979 9.33718C8.78985 8.78244 8.78395 8.22763 8.79126 7.67301C8.80203 6.85821 9.38498 6.27135 10.1777 6.26603C10.9621 6.26077 11.5656 6.85615 11.572 7.66519C11.5808 8.78526 11.581 9.90551 11.5718 11.0256C11.5653 11.8181 10.9706 12.411 10.2014 12.4169C9.40658 12.4231 8.81126 11.8396 8.79004 11.0334C8.78947 11.0121 8.78972 10.9907 8.78972 10.9694C8.78972 10.4253 8.78972 9.88122 8.78979 9.33718Z" fill="white"/>
</svg>
